<svg xmlns="http://www.w3.org/2000/svg" xmlns:xlink="http://www.w3.org/1999/xlink" width="100" zoomAndPan="magnify" viewBox="0 0 75 74.999997" height="100" preserveAspectRatio="xMidYMid meet" version="1.0"><path fill="#f5f5f5" d="M 50.976562 -3.835938 L 50.976562 -2.867188 L 51.464844 -2.820312 C 53.085938 -2.382812 54.324219 -1.285156 55.554688 -0.183594 C 57.261719 1.339844 59.082031 2.730469 60.886719 4.132812 L 61.457031 4.574219 C 62.332031 5.253906 63.214844 5.929688 64.105469 6.59375 C 65.535156 7.664062 66.769531 8.648438 67.683594 10.214844 C 67.972656 10.703125 68.285156 11.070312 68.675781 11.480469 C 69.386719 12.28125 69.917969 13.171875 70.449219 14.101562 L 70.695312 14.527344 C 71.082031 15.214844 71.429688 15.925781 71.738281 16.65625 C 72.117188 17.515625 72.578125 18.25 73.089844 19.039062 C 74.066406 20.636719 74.296875 22.019531 74.375 23.871094 C 74.457031 24.863281 74.785156 25.675781 75.148438 26.601562 C 76.0625 29.097656 75.890625 31.671875 75.839844 34.292969 C 75.832031 34.8125 75.828125 35.332031 75.824219 35.851562 C 75.808594 37.328125 75.777344 38.800781 75.746094 40.277344 L 75.726562 41.417969 C 75.707031 42.316406 75.683594 43.210938 75.65625 44.109375 L 75.632812 44.863281 L 75.605469 45.539062 L 75.582031 46.101562 C 75.503906 46.578125 75.503906 46.578125 75.019531 47.304688 C 74.863281 47.820312 74.863281 47.820312 74.75 48.386719 L 74.605469 49.03125 L 74.457031 49.714844 C 74.007812 51.679688 73.480469 53.488281 72.589844 55.304688 L 72.230469 56.152344 C 71.839844 56.996094 71.460938 57.722656 70.890625 58.457031 C 70.015625 58.953125 69.214844 59.089844 68.21875 59.183594 L 67.675781 59.257812 C 66.175781 59.453125 64.878906 59.34375 63.394531 59.078125 C 61.605469 58.792969 59.847656 58.605469 58.035156 58.578125 L 57.429688 58.554688 C 56.675781 58.554688 56.074219 58.566406 55.402344 58.933594 C 54.617188 59.550781 54.066406 60.277344 53.574219 61.136719 L 53.210938 61.75 C 52.566406 63.042969 52.59375 64.308594 52.675781 65.726562 C 52.828125 66.785156 53.039062 67.679688 53.558594 68.621094 C 54.039062 69.6875 53.988281 70.636719 53.890625 71.785156 C 53.785156 72.574219 53.785156 72.574219 53.40625 73.242188 C 52.726562 73.820312 52.007812 74.273438 51.21875 74.695312 L 50.789062 74.9375 C 49.15625 75.769531 47.6875 75.796875 45.878906 75.777344 L 44.976562 75.773438 C 44.347656 75.773438 43.71875 75.769531 43.089844 75.765625 C 42.132812 75.757812 41.175781 75.753906 40.21875 75.753906 C 39.605469 75.753906 38.996094 75.75 38.382812 75.746094 L 37.523438 75.742188 C 36.078125 75.726562 34.753906 75.609375 33.347656 75.292969 C 32.332031 75.09375 31.308594 75.074219 30.277344 75.042969 L 28.886719 74.988281 C 28.164062 74.960938 27.445312 74.9375 26.722656 74.910156 C 26.019531 74.886719 25.320312 74.859375 24.617188 74.832031 L 23.960938 74.8125 L 23.351562 74.785156 L 22.820312 74.769531 C 22.242188 74.683594 21.84375 74.515625 21.351562 74.210938 C 20.707031 72.660156 20.765625 70.769531 20.867188 69.121094 L 20.984375 68.316406 C 21.261719 66.296875 21.414062 63.980469 20.789062 62.015625 C 20.664062 61.714844 20.527344 61.414062 20.378906 61.121094 L 20.089844 60.515625 C 19.632812 60.074219 19.632812 60.074219 18.785156 59.996094 C 17.695312 59.875 16.679688 59.972656 15.597656 60.121094 L 15.058594 60.1875 C 14.34375 60.28125 13.636719 60.382812 12.933594 60.53125 C 11.703125 60.761719 10.453125 60.679688 9.207031 60.636719 L 8.660156 60.621094 C 7.375 60.566406 6.078125 60.515625 4.835938 60.152344 C 4.238281 59.738281 3.988281 59.414062 3.640625 58.777344 L 3.378906 58.214844 C 3.152344 57.816406 2.917969 57.421875 2.683594 57.03125 L 2.324219 56.398438 C 1.945312 55.773438 1.945312 55.773438 1.398438 55.292969 C 0.746094 54.664062 0.367188 54.191406 -0.0195312 53.367188 C -0.347656 51.144531 -0.132812 48.828125 0.109375 46.609375 C 0.296875 44.625 0.261719 42.628906 0.253906 40.636719 C 0.253906 39.902344 0.253906 39.171875 0.253906 38.4375 C 0.253906 36.078125 0.21875 33.730469 0.0742188 31.375 C -0.207031 26.707031 0.894531 22.664062 2.894531 18.464844 C 3.152344 17.960938 3.414062 17.460938 3.675781 16.960938 C 3.914062 16.480469 3.914062 16.480469 3.925781 15.722656 C 4.191406 14.425781 4.929688 13.597656 5.734375 12.570312 C 6.34375 11.785156 6.941406 10.988281 7.539062 10.191406 L 7.925781 9.683594 C 8.566406 8.832031 9.175781 7.976562 9.738281 7.070312 C 11.003906 5.148438 12.894531 3.9375 14.800781 2.710938 C 15.488281 2.246094 16.105469 1.746094 16.738281 1.207031 C 18.015625 0.171875 19.332031 -0.355469 20.867188 -0.925781 C 21.199219 -1.070312 21.535156 -1.214844 21.867188 -1.359375 C 24.273438 -2.390625 26.453125 -2.890625 29.058594 -3.066406 C 29.601562 -3.109375 30.140625 -3.164062 30.675781 -3.234375 C 37.402344 -4.058594 44.214844 -3.867188 50.976562 -3.835938 " fill-opacity="1" fill-rule="nonzero"/><path fill="#45484c" d="M 46.121094 -3.835938 L 50.976562 -3.835938 L 50.976562 -2.867188 L 51.464844 -2.820312 C 53.085938 -2.382812 54.324219 -1.285156 55.554688 -0.183594 C 57.261719 1.339844 59.082031 2.730469 60.886719 4.132812 L 61.457031 4.574219 C 62.332031 5.253906 63.214844 5.929688 64.105469 6.59375 C 65.535156 7.664062 66.769531 8.648438 67.683594 10.214844 C 67.972656 10.703125 68.285156 11.070312 68.675781 11.480469 C 69.386719 12.28125 69.917969 13.171875 70.449219 14.101562 L 70.695312 14.527344 C 71.082031 15.214844 71.429688 15.925781 71.738281 16.65625 C 72.117188 17.515625 72.578125 18.25 73.089844 19.039062 C 74.066406 20.636719 74.296875 22.019531 74.375 23.871094 C 74.457031 24.863281 74.78125 25.664062 75.148438 26.585938 C 76.097656 29.15625 75.878906 31.863281 75.824219 34.566406 C 75.816406 35.097656 75.8125 35.628906 75.808594 36.164062 C 75.792969 37.453125 75.773438 38.742188 75.746094 40.035156 L 75.261719 40.035156 L 75.261719 40.519531 L 71.863281 40.519531 L 71.621094 41.488281 L 71.09375 41.683594 C 70.082031 42.109375 69.550781 42.867188 68.84375 43.6875 C 67.289062 45.40625 65.707031 46.773438 63.605469 47.789062 L 62.835938 48.167969 C 60.457031 49.261719 58.367188 49.453125 55.773438 49.382812 L 54.644531 49.363281 C 50.90625 49.292969 46.71875 49.140625 43.394531 47.238281 C 41.925781 46.21875 40.570312 44.894531 39.730469 43.308594 C 38.632812 40.574219 38.363281 37.378906 38.59375 34.460938 C 38.914062 32.355469 39.511719 30.277344 40.535156 28.402344 C 41.128906 27.667969 41.792969 27.28125 42.644531 26.886719 C 43.785156 26.628906 44.957031 26.566406 46.121094 26.460938 Z M 17.222656 25.734375 C 17.972656 25.976562 18.699219 26.253906 19.429688 26.550781 C 21.007812 27.183594 22.621094 27.632812 24.265625 28.066406 L 25.089844 28.285156 C 26.269531 28.59375 27.453125 28.894531 28.640625 29.183594 L 29.175781 29.3125 C 29.628906 29.421875 30.082031 29.527344 30.539062 29.632812 C 31.375 29.875 32.03125 30.109375 32.765625 30.582031 C 33.136719 31.148438 33.414062 31.640625 33.691406 32.25 L 33.910156 32.699219 C 34.71875 34.402344 34.75 35.929688 34.753906 37.777344 L 34.761719 38.46875 C 34.765625 40.738281 34.464844 42.773438 33.382812 44.789062 C 32.539062 46.089844 31.53125 47.085938 30.15625 47.8125 C 26.929688 49.34375 23.289062 49.347656 19.789062 49.382812 L 19.21875 49.390625 C 16.707031 49.433594 14.65625 49.195312 12.367188 48.03125 C 11.832031 47.734375 11.394531 47.429688 10.910156 47.046875 L 10.285156 46.570312 L 9.695312 46.09375 L 9.0625 45.609375 C 8.519531 45.15625 8.09375 44.703125 7.644531 44.15625 C 7.121094 43.535156 6.660156 43.066406 5.960938 42.65625 L 5.324219 42.214844 C 5.097656 41.59375 5.097656 41.59375 5.082031 41.003906 L 5.324219 40.277344 L 5.082031 39.792969 C 5.039062 36.992188 5.304688 34.34375 6.539062 31.792969 C 7.039062 31.121094 7.582031 30.617188 8.238281 30.097656 L 8.800781 29.507812 C 11.222656 27.199219 13.703125 25.148438 17.222656 25.734375 " fill-opacity="1" fill-rule="nonzero"/><path fill="#f5f5f5" d="M 50.976562 -2.867188 C 52.46875 -2.570312 53.433594 -1.988281 54.597656 -1.03125 C 54.917969 -0.75 55.234375 -0.46875 55.554688 -0.183594 C 57.261719 1.339844 59.082031 2.730469 60.886719 4.132812 L 61.457031 4.574219 C 62.332031 5.253906 63.214844 5.929688 64.105469 6.59375 C 65.535156 7.664062 66.769531 8.648438 67.683594 10.214844 C 67.972656 10.703125 68.285156 11.070312 68.675781 11.480469 C 69.386719 12.28125 69.917969 13.171875 70.449219 14.101562 L 70.695312 14.527344 C 71.082031 15.214844 71.429688 15.925781 71.738281 16.65625 C 72.117188 17.515625 72.578125 18.25 73.089844 19.039062 C 73.980469 20.5 74.253906 21.765625 74.375 23.457031 C 74.46875 24.699219 74.734375 25.75 75.171875 26.914062 C 75.730469 28.480469 75.875 29.667969 75.746094 31.308594 C 75.726562 31.6875 75.707031 32.066406 75.6875 32.445312 C 75.632812 33.519531 75.570312 34.59375 75.503906 35.671875 L 71.863281 35.671875 L 71.679688 34.414062 C 71.222656 31.582031 71.222656 31.582031 70 29.023438 C 69.722656 28.710938 69.433594 28.402344 69.136719 28.105469 C 68.707031 27.671875 68.707031 27.671875 68.273438 27.097656 C 66.726562 25.277344 64.273438 23.644531 62.0625 22.765625 C 60.824219 22.414062 59.777344 22.347656 58.507812 22.582031 C 57.320312 22.964844 56.179688 23.441406 55.035156 23.933594 L 54.132812 24.28125 L 53.648438 24.039062 L 53.648438 18.949219 L 52.921875 18.949219 L 52.921875 17.007812 L 51.949219 17.007812 L 51.949219 12.886719 L 50.976562 12.886719 Z M 46.121094 -3.835938 L 46.121094 -3.109375 L 45.667969 -3.101562 C 44.097656 -3.074219 42.53125 -3.046875 40.964844 -3.019531 C 40.378906 -3.007812 39.792969 -2.996094 39.210938 -2.988281 C 38.367188 -2.972656 37.523438 -2.957031 36.683594 -2.941406 L 35.898438 -2.929688 C 33.59375 -2.886719 33.59375 -2.886719 31.308594 -2.625 L 31.066406 -2.382812 C 30.3125 -2.242188 29.558594 -2.132812 28.804688 -2.019531 L 28.152344 -1.898438 L 27.90625 -1.65625 C 27.5 -1.636719 27.089844 -1.632812 26.679688 -1.640625 L 26 -1.644531 L 25.480469 -1.65625 L 25.480469 -0.925781 L 25.023438 -0.871094 C 23.316406 -0.609375 22.246094 0.0117188 20.867188 1.011719 C 20.308594 1.359375 19.746094 1.671875 19.164062 1.980469 L 18.679688 1.980469 L 18.679688 2.464844 L 17.953125 2.464844 L 17.953125 2.949219 C 17.550781 3.257812 17.550781 3.257812 16.996094 3.601562 C 15.953125 4.269531 14.988281 5 14.027344 5.78125 L 13.578125 6.101562 L 13.09375 6.101562 L 12.851562 6.828125 L 12.367188 6.828125 L 12.175781 7.257812 C 11.855469 7.84375 11.503906 8.238281 11.03125 8.707031 L 10.582031 9.15625 L 10.179688 9.496094 L 9.695312 9.496094 L 9.207031 10.949219 L 8.722656 10.949219 L 8.527344 11.34375 L 7.507812 13.375 L 7.023438 13.375 L 7.023438 14.101562 L 6.539062 14.34375 C 6.269531 14.941406 6.054688 15.554688 5.832031 16.171875 C 5.5625 16.773438 5.296875 17.039062 4.835938 17.492188 C 3.808594 19.625 3.4375 21.996094 2.992188 24.300781 L 2.863281 24.960938 L 2.757812 25.542969 L 2.652344 25.976562 L 2.410156 26.21875 C 2.359375 26.578125 2.316406 26.933594 2.289062 27.292969 L 2.226562 27.953125 L 2.167969 28.644531 C 2.125 29.09375 2.085938 29.542969 2.046875 29.992188 L 1.992188 30.597656 L 1.921875 31.066406 L 1.679688 31.308594 C 1.65625 31.941406 1.640625 32.574219 1.640625 33.203125 L 1.636719 33.808594 C 1.632812 34.46875 1.632812 35.128906 1.632812 35.789062 L 1.628906 37.164062 C 1.625 38.125 1.625 39.085938 1.621094 40.050781 C 1.621094 41.28125 1.613281 42.515625 1.609375 43.746094 C 1.605469 44.691406 1.601562 45.640625 1.601562 46.585938 C 1.601562 47.042969 1.597656 47.496094 1.597656 47.949219 C 1.59375 48.585938 1.59375 49.222656 1.59375 49.859375 L 1.585938 50.425781 C 1.597656 51.597656 1.828125 52.355469 2.410156 53.367188 C 2.582031 53.929688 2.746094 54.492188 2.894531 55.0625 L 3.136719 55.789062 C 3.566406 56.035156 3.566406 56.035156 4.109375 56.273438 L 4.746094 56.742188 C 6.335938 57.714844 7.855469 58.003906 9.703125 58.058594 C 11.03125 58.082031 12.355469 58.089844 13.683594 58.09375 C 14.34375 58.097656 15.007812 58.105469 15.667969 58.113281 L 16.273438 58.113281 C 17.636719 58.128906 18.652344 58.367188 19.894531 58.941406 C 20.3125 59.296875 20.3125 59.296875 20.621094 59.667969 L 20.621094 60.152344 L 21.351562 60.394531 C 21.851562 61.085938 21.929688 61.820312 22.027344 62.652344 C 22.164062 64.320312 22.164062 66.003906 22.195312 67.675781 C 22.207031 68.183594 22.21875 68.6875 22.230469 69.195312 L 22.25 70.101562 L 22.324219 70.816406 L 22.808594 71.300781 L 22.914062 71.785156 L 23.050781 72.269531 L 23.78125 72.753906 L 23.78125 73.242188 L 24.75 73.484375 L 24.75 73.96875 C 27.78125 73.984375 30.808594 73.996094 33.839844 74.003906 C 35.246094 74.007812 36.652344 74.015625 38.058594 74.023438 C 39.417969 74.03125 40.777344 74.035156 42.136719 74.035156 C 42.652344 74.039062 43.171875 74.039062 43.6875 74.042969 C 44.414062 74.050781 45.140625 74.050781 45.867188 74.050781 L 46.507812 74.058594 C 48.007812 74.050781 49.339844 73.789062 50.734375 73.242188 C 51.558594 72.699219 52.164062 72.140625 52.675781 71.300781 C 52.816406 70.453125 52.816406 70.453125 52.84375 69.542969 L 52.894531 68.617188 L 52.921875 67.90625 C 53.285156 68.382812 53.621094 68.824219 53.890625 69.363281 C 53.976562 70.441406 53.929688 71.5 53.785156 72.574219 C 53.300781 73.429688 52.714844 73.808594 51.894531 74.332031 L 51.21875 74.695312 L 50.789062 74.9375 C 49.15625 75.769531 47.6875 75.796875 45.878906 75.777344 L 44.976562 75.773438 C 44.347656 75.773438 43.71875 75.769531 43.089844 75.765625 C 42.132812 75.757812 41.175781 75.753906 40.21875 75.753906 C 39.605469 75.753906 38.996094 75.75 38.382812 75.746094 L 37.523438 75.742188 C 36.078125 75.726562 34.753906 75.609375 33.347656 75.292969 C 32.332031 75.09375 31.308594 75.074219 30.277344 75.042969 L 28.886719 74.988281 C 28.164062 74.960938 27.445312 74.9375 26.722656 74.910156 C 26.019531 74.886719 25.320312 74.859375 24.617188 74.832031 L 23.960938 74.8125 L 23.351562 74.785156 L 22.820312 74.769531 C 22.242188 74.683594 21.84375 74.515625 21.351562 74.210938 C 20.707031 72.660156 20.765625 70.769531 20.867188 69.121094 L 20.984375 68.316406 C 21.261719 66.296875 21.414062 63.980469 20.789062 62.015625 C 20.664062 61.714844 20.527344 61.414062 20.378906 61.121094 L 20.089844 60.515625 C 19.632812 60.074219 19.632812 60.074219 18.785156 59.996094 C 17.695312 59.875 16.679688 59.972656 15.597656 60.121094 L 15.058594 60.1875 C 14.34375 60.28125 13.636719 60.382812 12.933594 60.53125 C 11.703125 60.761719 10.453125 60.679688 9.207031 60.636719 L 8.660156 60.621094 C 7.375 60.566406 6.078125 60.515625 4.835938 60.152344 C 4.238281 59.738281 3.988281 59.414062 3.640625 58.777344 L 3.378906 58.214844 C 3.152344 57.816406 2.917969 57.421875 2.683594 57.03125 L 2.324219 56.398438 C 1.945312 55.773438 1.945312 55.773438 1.398438 55.292969 C 0.746094 54.664062 0.367188 54.191406 -0.0195312 53.367188 C -0.347656 51.144531 -0.132812 48.828125 0.109375 46.609375 C 0.296875 44.625 0.261719 42.628906 0.253906 40.636719 C 0.253906 39.902344 0.253906 39.171875 0.253906 38.4375 C 0.253906 36.078125 0.21875 33.730469 0.0742188 31.375 C -0.207031 26.707031 0.894531 22.664062 2.894531 18.464844 C 3.152344 17.960938 3.414062 17.460938 3.675781 16.960938 C 3.914062 16.480469 3.914062 16.480469 3.925781 15.722656 C 4.191406 14.425781 4.929688 13.597656 5.734375 12.570312 C 6.34375 11.785156 6.941406 10.988281 7.539062 10.191406 L 7.925781 9.683594 C 8.566406 8.832031 9.175781 7.976562 9.738281 7.070312 C 11.003906 5.148438 12.894531 3.9375 14.800781 2.710938 C 15.488281 2.246094 16.105469 1.746094 16.738281 1.207031 C 18.015625 0.171875 19.332031 -0.355469 20.867188 -0.925781 C 21.199219 -1.070312 21.535156 -1.214844 21.867188 -1.359375 C 24.273438 -2.390625 26.453125 -2.890625 29.058594 -3.066406 C 29.601562 -3.109375 30.140625 -3.164062 30.675781 -3.234375 C 35.796875 -3.859375 40.96875 -3.882812 46.121094 -3.835938 " fill-opacity="1" fill-rule="nonzero"/><path fill="#e1dcd8" d="M 50.976562 -2.867188 C 52.03125 -2.769531 52.761719 -2.34375 53.625 -1.777344 C 54.308594 -1.285156 54.929688 -0.742188 55.554688 -0.183594 C 57.261719 1.339844 59.082031 2.730469 60.886719 4.132812 L 61.457031 4.574219 C 62.332031 5.253906 63.214844 5.929688 64.105469 6.59375 C 65.535156 7.664062 66.769531 8.648438 67.683594 10.214844 C 67.972656 10.703125 68.285156 11.070312 68.675781 11.480469 C 69.386719 12.28125 69.917969 13.171875 70.449219 14.101562 L 70.695312 14.527344 C 71.082031 15.214844 71.429688 15.925781 71.738281 16.65625 C 72.117188 17.515625 72.578125 18.25 73.089844 19.039062 C 73.980469 20.5 74.253906 21.765625 74.375 23.457031 C 74.46875 24.699219 74.734375 25.75 75.171875 26.914062 C 75.730469 28.480469 75.875 29.667969 75.746094 31.308594 C 75.726562 31.6875 75.707031 32.066406 75.6875 32.445312 C 75.632812 33.519531 75.570312 34.59375 75.503906 35.671875 L 73.804688 35.671875 L 73.789062 34.996094 C 73.769531 34.171875 73.75 33.34375 73.726562 32.515625 C 73.71875 32.15625 73.710938 31.800781 73.703125 31.441406 C 73.691406 30.925781 73.675781 30.410156 73.664062 29.894531 L 73.640625 28.957031 C 73.566406 28.207031 73.441406 27.828125 73.078125 27.1875 C 72.945312 26.535156 72.832031 25.890625 72.726562 25.234375 C 72.277344 22.554688 71.609375 20.1875 70.40625 17.734375 L 70.054688 17.007812 C 69.285156 15.433594 68.496094 13.84375 67.492188 12.402344 L 67.003906 12.160156 L 67.003906 11.433594 L 66.277344 11.191406 C 65.839844 10.582031 65.441406 9.953125 65.042969 9.316406 C 64.34375 8.265625 63.578125 7.597656 62.53125 6.890625 L 62.148438 6.585938 L 62.148438 6.101562 L 61.664062 6.101562 C 61.253906 5.703125 60.847656 5.300781 60.449219 4.890625 L 59.71875 4.285156 C 58.992188 3.679688 58.992188 3.679688 58.429688 3.042969 C 57.570312 2.28125 56.6875 2.03125 55.589844 1.738281 L 55.589844 1.253906 L 55.046875 1.179688 C 54.320312 0.996094 53.996094 0.730469 53.40625 0.285156 C 52.925781 0.109375 52.441406 -0.0546875 51.949219 -0.199219 L 51.949219 -0.683594 L 50.976562 -0.441406 Z M 2.410156 19.433594 C 2.894531 20.160156 2.894531 20.160156 2.957031 20.902344 L 2.894531 21.613281 L 2.410156 22.097656 C 2.308594 22.589844 2.230469 23.085938 2.167969 23.582031 C 2.050781 24.453125 1.921875 25.261719 1.675781 26.101562 C 1.359375 27.367188 1.363281 28.605469 1.359375 29.902344 L 1.351562 30.703125 C 1.34375 31.574219 1.339844 32.445312 1.335938 33.316406 C 1.332031 33.921875 1.328125 34.527344 1.324219 35.132812 C 1.3125 36.5625 1.300781 37.992188 1.292969 39.417969 C 1.285156 41.207031 1.269531 42.992188 1.257812 44.78125 C 1.234375 47.964844 1.214844 51.148438 1.195312 54.335938 L 1.679688 54.335938 C 1.929688 54.734375 2.171875 55.140625 2.410156 55.546875 L 2.894531 55.789062 L 3.203125 56.351562 C 3.703125 57.128906 4.199219 57.441406 4.988281 57.910156 C 6.292969 58.695312 6.292969 58.695312 6.539062 58.941406 C 7.148438 58.976562 7.75 58.996094 8.363281 59.007812 L 8.925781 59.023438 C 9.527344 59.035156 10.125 59.050781 10.726562 59.0625 C 13.304688 59.117188 15.867188 59.1875 18.4375 59.425781 C 17.535156 60.023438 16.722656 60.066406 15.675781 60.167969 C 15.308594 60.203125 14.941406 60.242188 14.574219 60.28125 L 14.050781 60.335938 C 13.546875 60.390625 13.546875 60.390625 12.929688 60.527344 C 11.703125 60.765625 10.453125 60.679688 9.207031 60.636719 L 8.660156 60.621094 C 7.375 60.566406 6.078125 60.515625 4.835938 60.152344 C 4.238281 59.738281 3.988281 59.414062 3.640625 58.777344 L 3.378906 58.214844 C 3.152344 57.816406 2.917969 57.421875 2.683594 57.03125 L 2.324219 56.398438 C 1.945312 55.773438 1.945312 55.773438 1.398438 55.292969 C 0.746094 54.664062 0.367188 54.191406 -0.0195312 53.367188 C -0.347656 51.144531 -0.132812 48.828125 0.109375 46.609375 C 0.296875 44.625 0.261719 42.628906 0.253906 40.636719 C 0.253906 39.902344 0.253906 39.171875 0.253906 38.4375 C 0.253906 36.078125 0.21875 33.730469 0.0742188 31.375 C -0.183594 27.09375 0.695312 23.351562 2.410156 19.433594 " fill-opacity="1" fill-rule="nonzero"/><path fill="#f5f5f5" d="M 46.121094 -3.835938 L 46.121094 -3.109375 L 45.667969 -3.101562 C 44.097656 -3.074219 42.53125 -3.046875 40.964844 -3.019531 C 40.378906 -3.007812 39.792969 -2.996094 39.210938 -2.988281 C 38.367188 -2.972656 37.523438 -2.957031 36.683594 -2.941406 L 35.898438 -2.929688 C 33.59375 -2.886719 33.59375 -2.886719 31.308594 -2.625 L 31.066406 -2.382812 C 30.3125 -2.242188 29.558594 -2.132812 28.804688 -2.019531 L 28.152344 -1.898438 L 27.90625 -1.65625 C 27.5 -1.636719 27.089844 -1.632812 26.679688 -1.640625 L 26 -1.644531 L 25.480469 -1.65625 L 25.480469 -0.925781 L 25.023438 -0.871094 C 23.316406 -0.609375 22.246094 0.0117188 20.867188 1.011719 C 20.308594 1.359375 19.746094 1.671875 19.164062 1.980469 L 18.679688 1.980469 L 18.679688 2.464844 L 17.953125 2.464844 L 17.953125 2.949219 C 17.550781 3.257812 17.550781 3.257812 16.996094 3.601562 C 15.953125 4.269531 14.988281 5 14.027344 5.78125 L 13.578125 6.101562 L 13.09375 6.101562 L 12.851562 6.828125 L 12.367188 6.828125 L 12.171875 7.257812 C 11.574219 8.355469 10.597656 9.234375 9.542969 9.890625 L 8.964844 10.222656 L 8.328125 10.859375 C 7.75 11.433594 7.75 11.433594 7.023438 11.675781 L 7.082031 12.222656 L 7.023438 12.886719 C 6.539062 13.449219 6.539062 13.449219 6.050781 13.859375 L 5.324219 13.617188 L 5.082031 14.34375 L 4.59375 14.101562 L 4.898438 13.703125 C 7.191406 10.707031 7.191406 10.707031 9.332031 7.601562 C 10.648438 5.605469 12.152344 4.417969 14.140625 3.136719 C 15.074219 2.535156 15.9375 1.902344 16.78125 1.179688 C 18.039062 0.152344 19.355469 -0.363281 20.867188 -0.925781 C 21.199219 -1.070312 21.535156 -1.214844 21.867188 -1.359375 C 24.273438 -2.390625 26.453125 -2.890625 29.058594 -3.066406 C 29.601562 -3.109375 30.140625 -3.164062 30.675781 -3.234375 C 35.796875 -3.859375 40.96875 -3.882812 46.121094 -3.835938 " fill-opacity="1" fill-rule="nonzero"/><path fill="#e1dcd8" d="M 21.109375 67.421875 C 21.746094 68.382812 21.851562 69.355469 22.042969 70.464844 C 22.195312 71.292969 22.332031 71.800781 22.808594 72.511719 L 22.808594 73.242188 L 23.535156 73.484375 L 23.535156 73.96875 C 26.722656 73.984375 29.910156 73.996094 33.101562 74.003906 C 34.578125 74.007812 36.058594 74.015625 37.539062 74.023438 C 38.96875 74.03125 40.398438 74.035156 41.828125 74.035156 C 42.375 74.039062 42.917969 74.039062 43.460938 74.042969 C 44.226562 74.050781 44.992188 74.050781 45.757812 74.050781 L 46.433594 74.058594 C 47.957031 74.050781 49.3125 73.804688 50.734375 73.242188 C 51.558594 72.699219 52.164062 72.140625 52.675781 71.300781 C 52.816406 70.453125 52.816406 70.453125 52.84375 69.542969 L 52.894531 68.617188 L 52.921875 67.90625 C 53.285156 68.382812 53.621094 68.824219 53.890625 69.363281 C 53.976562 70.441406 53.929688 71.5 53.785156 72.574219 C 53.300781 73.429688 52.714844 73.808594 51.894531 74.332031 L 51.21875 74.695312 L 50.789062 74.9375 C 49.15625 75.769531 47.6875 75.796875 45.878906 75.777344 L 44.976562 75.773438 C 44.347656 75.773438 43.71875 75.769531 43.089844 75.765625 C 42.132812 75.757812 41.175781 75.753906 40.21875 75.753906 C 39.605469 75.753906 38.996094 75.75 38.382812 75.746094 L 37.523438 75.742188 C 36.078125 75.726562 34.753906 75.609375 33.347656 75.292969 C 32.332031 75.09375 31.308594 75.074219 30.277344 75.042969 L 28.886719 74.988281 C 28.164062 74.960938 27.445312 74.9375 26.722656 74.910156 C 26.019531 74.886719 25.320312 74.859375 24.617188 74.832031 L 23.960938 74.8125 L 23.351562 74.785156 L 22.820312 74.769531 C 22.242188 74.683594 21.84375 74.515625 21.351562 74.210938 C 20.644531 72.507812 20.738281 70.375 20.921875 68.574219 C 20.976562 68.191406 21.039062 67.804688 21.109375 67.421875 " fill-opacity="1" fill-rule="nonzero"/><path fill="#b3b3b4" d="M 35.40625 48.242188 L 35.902344 48.242188 C 36.253906 48.242188 36.601562 48.242188 36.949219 48.242188 C 37.480469 48.246094 38.015625 48.242188 38.546875 48.242188 C 38.886719 48.242188 39.226562 48.242188 39.5625 48.242188 L 40.5 48.246094 C 41.265625 48.277344 41.265625 48.277344 41.992188 48.519531 L 41.992188 49.972656 L 42.722656 49.972656 L 42.722656 51.667969 L 41.992188 51.667969 L 41.992188 52.636719 L 41.265625 52.878906 L 41.019531 53.367188 L 33.25 53.367188 L 33.007812 52.636719 L 32.277344 52.394531 C 32.253906 51.929688 32.234375 51.46875 32.21875 51.003906 L 32.183594 50.21875 L 32.277344 49.488281 C 33.246094 48.300781 33.914062 48.246094 35.40625 48.242188 " fill-opacity="1" fill-rule="nonzero"/><path fill="#f5f5f5" d="M 50.976562 -2.867188 C 52.03125 -2.769531 52.761719 -2.34375 53.625 -1.777344 C 54.308594 -1.285156 54.929688 -0.742188 55.554688 -0.183594 C 57.261719 1.339844 59.082031 2.730469 60.886719 4.132812 L 61.457031 4.574219 C 62.332031 5.253906 63.214844 5.929688 64.105469 6.59375 C 65.535156 7.664062 66.769531 8.648438 67.683594 10.214844 C 67.972656 10.703125 68.285156 11.070312 68.675781 11.480469 C 69.402344 12.300781 69.957031 13.203125 70.511719 14.144531 L 70.78125 14.589844 C 71.027344 15.019531 71.027344 15.019531 71.375 15.796875 C 71.308594 16.386719 71.308594 16.386719 71.132812 16.765625 L 70.816406 16.207031 C 70.445312 15.5625 70.445312 15.5625 69.996094 15.144531 L 69.675781 14.828125 L 69.675781 14.34375 L 69.191406 14.34375 L 69.191406 13.375 L 68.75 13.296875 C 68.21875 13.128906 68.21875 13.128906 67.824219 12.765625 L 67.492188 12.402344 L 67.003906 12.160156 L 67.003906 11.433594 L 66.277344 11.191406 C 65.839844 10.582031 65.441406 9.953125 65.042969 9.316406 C 64.34375 8.265625 63.578125 7.597656 62.53125 6.890625 L 62.148438 6.585938 L 62.148438 6.101562 L 61.664062 6.101562 C 61.253906 5.703125 60.847656 5.300781 60.449219 4.890625 L 59.71875 4.285156 C 58.992188 3.679688 58.992188 3.679688 58.429688 3.042969 C 57.570312 2.28125 56.6875 2.03125 55.589844 1.738281 L 55.589844 1.253906 L 55.046875 1.179688 C 54.320312 0.996094 53.996094 0.730469 53.40625 0.285156 C 52.925781 0.109375 52.441406 -0.0546875 51.949219 -0.199219 L 51.949219 -0.683594 L 50.976562 -0.441406 Z M 75.261719 40.035156 L 75.746094 40.277344 C 75.722656 41.3125 75.6875 42.347656 75.65625 43.382812 C 75.648438 43.675781 75.640625 43.972656 75.632812 44.273438 L 75.605469 45.128906 L 75.582031 45.917969 C 75.503906 46.578125 75.503906 46.578125 75.019531 47.304688 C 74.863281 47.820312 74.863281 47.820312 74.75 48.386719 L 74.605469 49.03125 L 74.457031 49.714844 C 74.007812 51.679688 73.480469 53.488281 72.589844 55.304688 L 72.230469 56.152344 C 71.839844 56.996094 71.460938 57.722656 70.890625 58.457031 C 70.015625 58.953125 69.214844 59.089844 68.21875 59.183594 L 67.679688 59.257812 C 66.164062 59.453125 64.832031 59.351562 63.332031 59.089844 C 61.152344 58.746094 59.011719 58.546875 56.804688 58.457031 L 56.804688 58.214844 C 57.832031 58.179688 58.859375 58.144531 59.890625 58.109375 L 60.933594 58.074219 C 61.605469 58.050781 62.273438 58.027344 62.945312 58.007812 C 64.078125 57.972656 65.210938 57.964844 66.34375 57.992188 L 66.761719 57.96875 L 67.003906 57.726562 C 67.429688 57.65625 67.855469 57.59375 68.28125 57.53125 C 69.199219 57.375 69.644531 57.265625 70.421875 56.726562 L 70.890625 56.273438 L 71.375 56.273438 L 71.574219 55.863281 C 71.863281 55.304688 71.863281 55.304688 72.226562 54.714844 C 72.910156 53.550781 73.191406 52.457031 73.335938 51.125 L 73.394531 50.582031 C 73.726562 47.246094 73.730469 43.871094 73.804688 40.519531 L 75.261719 40.519531 Z M 21.835938 61.847656 L 22.324219 62.332031 C 22.410156 63.070312 22.410156 63.070312 22.449219 64.007812 L 22.503906 65.039062 C 22.527344 65.578125 22.550781 66.117188 22.574219 66.65625 C 22.652344 69.429688 22.652344 69.429688 23.535156 72.027344 C 24.320312 72.679688 24.976562 73.042969 25.964844 73.242188 C 26.292969 73.261719 26.625 73.273438 26.957031 73.273438 L 27.546875 73.277344 L 28.1875 73.28125 L 28.871094 73.28125 C 29.613281 73.285156 30.355469 73.289062 31.101562 73.289062 L 32.652344 73.292969 C 33.734375 73.296875 34.820312 73.296875 35.90625 73.296875 C 37.292969 73.300781 38.679688 73.304688 40.070312 73.3125 C 41.136719 73.316406 42.207031 73.320312 43.273438 73.320312 C 43.785156 73.320312 44.296875 73.320312 44.808594 73.324219 C 45.527344 73.328125 46.242188 73.328125 46.960938 73.328125 L 47.597656 73.332031 C 48.90625 73.324219 49.8125 73.121094 50.976562 72.511719 C 51.386719 72.15625 51.386719 72.15625 51.644531 71.757812 L 52.191406 71.058594 L 52.921875 70.816406 C 52.539062 71.746094 51.953125 72.320312 51.21875 73 L 50.78125 73.40625 C 49.695312 74.058594 48.453125 74.234375 47.203125 74.273438 C 46.792969 74.277344 46.386719 74.277344 45.980469 74.277344 L 45.300781 74.28125 C 44.566406 74.285156 43.832031 74.285156 43.097656 74.28125 L 41.558594 74.285156 C 40.484375 74.289062 39.414062 74.289062 38.34375 74.285156 C 36.96875 74.285156 35.59375 74.289062 34.21875 74.292969 C 33.164062 74.296875 32.105469 74.296875 31.046875 74.296875 C 30.539062 74.296875 30.035156 74.300781 29.527344 74.300781 C 28.820312 74.304688 28.113281 74.304688 27.40625 74.300781 L 26.769531 74.304688 C 26.1875 74.300781 26.1875 74.300781 25.238281 74.210938 C 24.984375 73.976562 24.742188 73.734375 24.507812 73.484375 L 23.78125 73.242188 C 23.179688 72.730469 22.839844 72.34375 22.519531 71.621094 L 22.324219 71.058594 L 22.078125 70.816406 C 22.039062 70.152344 22.015625 69.496094 22.003906 68.832031 L 21.988281 68.230469 C 21.972656 67.589844 21.957031 66.953125 21.941406 66.316406 L 21.910156 65.023438 C 21.886719 63.964844 21.859375 62.90625 21.835938 61.847656 " fill-opacity="1" fill-rule="nonzero"/><path fill="#e1dcd8" d="M -0.0195312 47.789062 L 0.464844 48.277344 C 0.542969 48.976562 0.589844 49.660156 0.617188 50.367188 L 0.648438 50.953125 C 0.667969 51.433594 0.691406 51.914062 0.710938 52.394531 L 1.195312 52.636719 L 1.195312 54.335938 L 1.679688 54.335938 C 1.929688 54.734375 2.171875 55.140625 2.410156 55.546875 L 2.894531 55.789062 L 3.203125 56.351562 C 3.703125 57.128906 4.199219 57.441406 4.988281 57.910156 C 6.292969 58.695312 6.292969 58.695312 6.539062 58.941406 C 7.148438 58.976562 7.75 58.996094 8.363281 59.007812 L 8.925781 59.023438 C 9.527344 59.035156 10.125 59.050781 10.726562 59.0625 C 13.304688 59.117188 15.867188 59.1875 18.4375 59.425781 C 17.535156 60.023438 16.722656 60.066406 15.675781 60.167969 C 15.308594 60.203125 14.941406 60.242188 14.574219 60.28125 L 14.050781 60.335938 C 13.546875 60.390625 13.546875 60.390625 12.929688 60.527344 C 11.703125 60.765625 10.453125 60.679688 9.207031 60.636719 L 8.660156 60.621094 C 7.375 60.566406 6.078125 60.515625 4.835938 60.152344 C 4.238281 59.738281 3.988281 59.414062 3.640625 58.777344 L 3.378906 58.214844 C 3.152344 57.816406 2.917969 57.421875 2.683594 57.03125 L 2.324219 56.398438 C 1.945312 55.773438 1.945312 55.773438 1.398438 55.292969 C 0.742188 54.660156 0.367188 54.199219 -0.0195312 53.367188 C -0.261719 51.519531 -0.140625 49.640625 -0.0195312 47.789062 " fill-opacity="1" fill-rule="nonzero"/><path fill="#f5f5f5" d="M 9.453125 9.496094 L 9.695312 9.980469 C 9.46875 10.496094 9.46875 10.496094 9.207031 10.949219 L 8.722656 10.949219 L 8.527344 11.34375 L 7.507812 13.375 L 7.023438 13.375 L 7.023438 14.101562 L 6.539062 14.34375 C 6.269531 14.941406 6.054688 15.554688 5.832031 16.171875 C 5.5625 16.773438 5.296875 17.039062 4.835938 17.492188 C 4.277344 18.679688 3.921875 19.957031 3.558594 21.21875 L 3.402344 21.773438 C 3.296875 22.136719 3.195312 22.5 3.097656 22.863281 C 2.835938 23.796875 2.578125 24.527344 1.921875 25.25 C 1.953125 24.734375 1.980469 24.21875 2.015625 23.703125 C 2.03125 23.417969 2.046875 23.128906 2.066406 22.835938 C 2.097656 22.59375 2.132812 22.347656 2.167969 22.097656 L 2.652344 21.613281 C 2.664062 21.046875 2.664062 21.046875 2.605469 20.402344 C 2.582031 19.316406 2.730469 18.632812 3.242188 17.675781 L 3.582031 17.082031 C 3.972656 16.316406 4.039062 15.675781 4.109375 14.828125 L 4.351562 14.34375 L 5.082031 14.101562 L 5.324219 13.617188 L 6.292969 13.617188 C 6.8125 12.949219 6.8125 12.949219 6.871094 12.292969 C 7.023438 11.675781 7.023438 11.675781 7.453125 11.203125 C 7.714844 10.996094 7.714844 10.996094 7.980469 10.78125 L 8.503906 10.355469 L 8.964844 9.980469 Z M 9.453125 9.496094 " fill-opacity="1" fill-rule="nonzero"/><path fill="#45484c" d="M 46.121094 -2.867188 L 46.363281 -2.867188 L 46.363281 25.976562 L 50.734375 24.765625 L 51.21875 24.765625 L 51.21875 25.25 C 49.324219 25.960938 47.398438 26.589844 45.445312 27.136719 L 44.785156 27.324219 L 44.1875 27.492188 C 43.648438 27.652344 43.648438 27.652344 43.207031 28.15625 L 42.386719 28.355469 L 41.507812 28.644531 C 40.949219 29.253906 40.949219 29.253906 40.535156 29.855469 L 40.050781 29.855469 C 40.203125 29.203125 40.203125 29.203125 40.535156 28.402344 C 41.199219 27.738281 41.792969 27.28125 42.644531 26.886719 C 43.785156 26.628906 44.957031 26.566406 46.121094 26.460938 Z M 46.121094 -2.867188 " fill-opacity="1" fill-rule="nonzero"/><path fill="#f5f5f5" d="M 75.261719 40.035156 L 75.746094 40.277344 C 75.722656 41.3125 75.6875 42.347656 75.65625 43.382812 C 75.648438 43.675781 75.640625 43.972656 75.632812 44.273438 L 75.605469 45.128906 L 75.582031 45.917969 C 75.503906 46.578125 75.503906 46.578125 75.019531 47.304688 C 74.867188 47.796875 74.867188 47.796875 74.757812 48.332031 L 74.632812 48.921875 L 74.503906 49.53125 C 74.457031 49.738281 74.414062 49.941406 74.371094 50.152344 C 74.261719 50.660156 74.152344 51.164062 74.046875 51.667969 L 73.804688 51.667969 L 73.804688 40.519531 L 75.261719 40.519531 Z M 75.261719 40.035156 " fill-opacity="1" fill-rule="nonzero"/><path fill="#e1dcd8" d="M 2.410156 19.433594 C 2.894531 20.160156 2.894531 20.160156 2.957031 20.902344 L 2.894531 21.613281 L 2.410156 22.097656 C 2.308594 22.589844 2.230469 23.085938 2.167969 23.582031 C 2.050781 24.460938 1.914062 25.285156 1.683594 26.140625 C 1.34375 27.441406 1.265625 28.761719 1.164062 30.097656 L 1.101562 30.875 C 1.050781 31.503906 1 32.132812 0.953125 32.761719 L 0.464844 32.761719 L 0.464844 34.21875 L 0.222656 34.21875 C -0.207031 28.851562 0.246094 24.382812 2.410156 19.433594 " fill-opacity="1" fill-rule="nonzero"/><path fill="#f5f5f5" d="M 2.894531 22.824219 C 3.136719 23.554688 3.136719 23.554688 3.0625 24.144531 L 2.789062 25.449219 L 2.652344 25.976562 L 2.410156 26.21875 C 2.359375 26.578125 2.316406 26.933594 2.289062 27.292969 L 2.226562 27.953125 L 2.167969 28.644531 C 2.125 29.09375 2.085938 29.542969 2.046875 29.992188 L 1.992188 30.597656 L 1.921875 31.066406 L 1.679688 31.308594 C 1.65625 31.941406 1.640625 32.574219 1.640625 33.203125 L 1.636719 33.808594 C 1.632812 34.46875 1.632812 35.128906 1.632812 35.789062 L 1.628906 37.164062 C 1.625 38.125 1.625 39.085938 1.621094 40.050781 C 1.621094 41.28125 1.613281 42.515625 1.609375 43.746094 C 1.605469 44.691406 1.601562 45.640625 1.601562 46.585938 C 1.601562 47.042969 1.597656 47.496094 1.597656 47.949219 C 1.59375 48.585938 1.59375 49.222656 1.59375 49.859375 L 1.585938 50.425781 C 1.597656 51.601562 1.851562 52.34375 2.410156 53.367188 L 2.410156 54.335938 L 1.921875 54.335938 C 1.535156 53.917969 1.535156 53.917969 1.195312 53.367188 C 1.105469 52.84375 1.105469 52.84375 1.105469 52.269531 L 1.097656 51.605469 L 1.105469 50.882812 L 1.101562 50.117188 C 1.101562 49.285156 1.101562 48.449219 1.105469 47.613281 C 1.105469 47.03125 1.105469 46.449219 1.105469 45.871094 C 1.105469 44.652344 1.109375 43.433594 1.113281 42.214844 C 1.117188 40.65625 1.117188 39.097656 1.117188 37.535156 C 1.117188 36.335938 1.117188 35.136719 1.121094 33.9375 C 1.121094 33.363281 1.121094 32.785156 1.121094 32.210938 C 1.121094 31.40625 1.125 30.601562 1.128906 29.796875 L 1.125 29.082031 C 1.136719 27.722656 1.292969 26.554688 1.679688 25.25 L 2.167969 25.25 L 2.257812 24.855469 C 2.4375 24.167969 2.664062 23.5 2.894531 22.824219 " fill-opacity="1" fill-rule="nonzero"/><path fill="#eec799" d="M 27.90625 -2.867188 C 27.621094 -2.511719 27.621094 -2.511719 27.179688 -2.140625 C 26.585938 -2.03125 26.585938 -2.03125 25.933594 -2.003906 C 25.300781 -1.984375 25.300781 -1.984375 24.75 -1.898438 L 24.507812 -1.410156 C 24.023438 -1.242188 23.539062 -1.078125 23.050781 -0.925781 L 22.808594 -0.683594 L 21.972656 -0.578125 L 21.109375 -0.441406 L 20.621094 0.0429688 L 19.894531 0.0429688 L 19.652344 0.769531 C 19.171875 0.945312 18.695312 1.117188 18.210938 1.28125 C 17.476562 1.597656 17.027344 2.128906 16.492188 2.707031 L 16.007812 2.707031 L 16.007812 3.191406 L 15.203125 3.390625 C 14.359375 3.660156 14.140625 3.789062 13.578125 4.40625 L 12.851562 4.40625 L 12.609375 5.132812 C 12.273438 5.542969 12.273438 5.542969 11.878906 5.859375 L 11.152344 5.859375 L 11.074219 6.296875 C 10.910156 6.828125 10.910156 6.828125 10.558594 7.253906 L 10.179688 7.554688 L 9.695312 7.554688 L 9.453125 8.527344 L 8.964844 8.28125 C 10.449219 5.777344 12.371094 4.269531 14.800781 2.710938 C 15.488281 2.246094 16.105469 1.746094 16.738281 1.207031 C 18.011719 0.171875 19.332031 -0.359375 20.867188 -0.925781 C 21.234375 -1.074219 21.601562 -1.222656 21.972656 -1.371094 C 22.363281 -1.523438 22.75 -1.679688 23.140625 -1.835938 L 23.703125 -2.0625 C 25.105469 -2.609375 26.386719 -2.910156 27.90625 -2.867188 " fill-opacity="1" fill-rule="nonzero"/><path fill="#e1dcd8" d="M 53.40625 71.300781 L 53.890625 71.300781 C 53.890625 71.964844 53.875 72.386719 53.648438 73 C 52.480469 74.292969 50.664062 75.117188 49.035156 75.664062 C 47.945312 75.820312 46.878906 75.816406 45.78125 75.800781 L 44.867188 75.796875 C 44.234375 75.796875 43.605469 75.789062 42.972656 75.78125 C 42.003906 75.769531 41.035156 75.765625 40.070312 75.765625 C 39.453125 75.761719 38.835938 75.757812 38.222656 75.753906 L 37.34375 75.75 L 36.53125 75.738281 C 36.296875 75.734375 36.058594 75.734375 35.816406 75.730469 C 35.191406 75.664062 35.191406 75.664062 34.222656 75.179688 L 49.519531 74.9375 L 49.761719 74.210938 L 50.222656 74.191406 L 50.824219 74.148438 L 51.421875 74.117188 L 51.949219 73.96875 C 52.253906 73.511719 52.253906 73.511719 52.433594 73 L 52.8125 72.5 C 53.207031 72.019531 53.207031 72.019531 53.40625 71.300781 M 14.308594 3.4375 L 14.792969 3.679688 C 13.980469 4.707031 13.148438 5.511719 12.121094 6.34375 C 11.445312 6.957031 10.976562 7.402344 10.605469 8.238281 C 10.066406 9.21875 9.351562 9.792969 8.496094 10.503906 C 7.949219 10.953125 7.949219 10.953125 7.507812 11.675781 L 7.023438 11.675781 L 7.082031 12.222656 L 7.023438 12.886719 C 6.539062 13.449219 6.539062 13.449219 6.050781 13.859375 L 5.324219 13.617188 L 5.082031 14.34375 L 4.59375 14.101562 L 4.921875 13.667969 C 5.410156 13.019531 5.898438 12.371094 6.386719 11.722656 L 6.898438 11.039062 L 7.394531 10.382812 L 7.847656 9.78125 C 8.148438 9.367188 8.441406 8.949219 8.722656 8.527344 L 9.453125 8.28125 L 9.695312 7.554688 L 10.179688 7.554688 L 10.421875 6.828125 L 10.910156 6.585938 L 11.152344 5.859375 L 11.878906 5.859375 L 12.121094 5.132812 C 12.671875 4.476562 13.332031 4.101562 14.066406 3.679688 Z M 21.109375 67.421875 C 21.746094 68.382812 21.851562 69.355469 22.042969 70.464844 C 22.195312 71.292969 22.332031 71.800781 22.808594 72.511719 L 22.808594 73.242188 L 23.535156 73.484375 L 23.535156 73.96875 L 25.722656 74.210938 L 25.722656 74.695312 C 25.175781 74.707031 24.628906 74.71875 24.082031 74.726562 L 23.160156 74.742188 C 22.324219 74.695312 22.324219 74.695312 21.746094 74.519531 C 21.351562 74.210938 21.351562 74.210938 21.148438 73.726562 C 20.78125 71.601562 20.730469 69.550781 21.109375 67.421875 " fill-opacity="1" fill-rule="nonzero"/><path fill="#f3a441" d="M 74.535156 25.734375 C 75.199219 26.402344 75.347656 27.0625 75.601562 27.960938 C 75.84375 29.089844 75.808594 30.160156 75.746094 31.308594 L 75.722656 31.851562 C 75.65625 33.125 75.582031 34.398438 75.503906 35.671875 L 74.535156 35.671875 Z M 74.535156 25.734375 " fill-opacity="1" fill-rule="nonzero"/><path fill="#e1dcd8" d="M 1.195312 53.367188 L 1.921875 53.851562 L 1.921875 54.335938 L 2.410156 54.335938 C 2.804688 54.789062 2.804688 54.789062 3.136719 55.304688 L 3.136719 55.789062 L 3.609375 55.972656 L 4.109375 56.273438 L 4.199219 56.757812 L 4.351562 57.242188 C 5.050781 57.53125 5.050781 57.53125 5.808594 57.726562 L 6.539062 58.214844 C 7.875 58.683594 9.078125 58.773438 10.476562 58.789062 L 11.113281 58.800781 C 11.777344 58.816406 12.445312 58.824219 13.109375 58.835938 C 13.777344 58.84375 14.441406 58.855469 15.109375 58.867188 C 15.523438 58.875 15.933594 58.882812 16.347656 58.886719 C 17.394531 58.90625 18.378906 58.976562 19.410156 59.183594 L 19.410156 59.910156 L 19.007812 59.796875 C 17.101562 59.363281 15.082031 59.410156 13.136719 59.398438 L 12 59.386719 C 11.421875 59.382812 10.84375 59.378906 10.265625 59.382812 C 7.027344 59.394531 7.027344 59.394531 5.8125 58.867188 C 5.296875 58.527344 4.808594 58.148438 4.351562 57.726562 L 3.902344 57.390625 C 3.488281 57.078125 3.488281 57.078125 2.894531 56.515625 L 2.894531 55.789062 L 2.167969 55.546875 C 1.878906 54.925781 1.878906 54.925781 1.679688 54.335938 L 1.195312 54.335938 Z M 20.136719 60.636719 C 20.578125 60.699219 20.578125 60.699219 21.109375 60.878906 C 21.519531 61.289062 21.519531 61.289062 21.835938 61.847656 C 22.0625 62.925781 22.117188 63.972656 22.140625 65.070312 L 22.164062 66.078125 C 22.175781 66.601562 22.1875 67.125 22.195312 67.648438 C 22.203125 68.160156 22.21875 68.667969 22.230469 69.175781 L 22.25 70.09375 L 22.324219 70.816406 L 22.808594 71.300781 L 22.914062 71.785156 L 23.050781 72.269531 L 23.78125 72.753906 L 23.78125 73.242188 L 24.75 73.484375 L 24.75 73.96875 L 25.238281 74.210938 C 24.433594 74.132812 24.433594 74.132812 23.535156 73.96875 C 22.765625 73.34375 22.433594 72.589844 22.058594 71.691406 C 21.3125 69.5625 21.273438 67.304688 21.234375 65.070312 C 21.183594 63.476562 20.855469 62.070312 20.136719 60.636719 " fill-opacity="1" fill-rule="nonzero"/><path fill="#f5f5f5" d="M 18.679688 0.769531 L 19.164062 1.011719 L 18.574219 1.328125 C 17.765625 1.859375 17.242188 2.527344 16.644531 3.285156 C 15.75 4.414062 14.84375 5.382812 13.578125 6.101562 L 13.09375 6.101562 L 12.851562 6.828125 L 12.367188 6.828125 L 12.179688 7.257812 C 11.851562 7.851562 11.488281 8.238281 11 8.707031 L 10.535156 9.15625 L 10.179688 9.496094 L 9.695312 9.253906 L 10.027344 8.828125 C 10.425781 8.316406 10.425781 8.316406 10.636719 7.8125 C 11.019531 7.109375 11.53125 6.636719 12.121094 6.101562 L 12.851562 5.859375 L 13.09375 5.132812 L 13.578125 5.132812 L 13.777344 4.707031 C 14.082031 4.132812 14.339844 3.664062 14.792969 3.191406 C 15.445312 3.132812 15.445312 3.132812 16.007812 3.191406 L 16.007812 2.707031 C 16.40625 2.296875 16.40625 2.296875 16.933594 1.84375 L 17.453125 1.390625 C 17.953125 1.011719 17.953125 1.011719 18.679688 0.769531 " fill-opacity="1" fill-rule="nonzero"/><path fill="#e1dcd8" d="M 41.992188 49.246094 L 42.964844 49.246094 L 43.449219 49.972656 C 43.371094 50.832031 43.238281 51.578125 42.964844 52.394531 C 42.578125 52.714844 42.578125 52.714844 42.113281 53.015625 C 41.824219 53.207031 41.542969 53.402344 41.265625 53.609375 L 41.019531 54.09375 L 34.222656 54.09375 L 33.980469 53.367188 L 41.019531 53.367188 L 41.265625 52.636719 L 41.992188 52.636719 L 41.992188 51.667969 L 42.722656 51.667969 L 42.722656 49.972656 L 41.992188 49.972656 Z M 41.992188 49.246094 " fill-opacity="1" fill-rule="nonzero"/><path fill="#eec799" d="M -0.0195312 47.789062 L 0.464844 48.277344 C 0.542969 48.976562 0.589844 49.660156 0.617188 50.367188 L 0.648438 50.953125 C 0.667969 51.433594 0.691406 51.914062 0.710938 52.394531 L 1.195312 52.636719 L 1.195312 54.335938 L 1.679688 54.335938 C 1.929688 54.734375 2.171875 55.140625 2.410156 55.546875 L 2.894531 55.789062 C 3.359375 56.476562 3.664062 57.113281 3.957031 57.894531 L 4.351562 58.699219 C 4.964844 59.027344 4.964844 59.027344 5.566406 59.183594 L 5.808594 59.667969 C 6.371094 59.84375 6.9375 60.007812 7.507812 60.152344 C 6.894531 60.375 6.378906 60.398438 5.71875 60.410156 C 4.835938 60.152344 4.835938 60.152344 4.457031 59.789062 C 3.640625 58.726562 2.984375 57.5625 2.324219 56.398438 C 1.945312 55.773438 1.945312 55.773438 1.398438 55.292969 C 0.742188 54.660156 0.367188 54.199219 -0.0195312 53.367188 C -0.261719 51.519531 -0.140625 49.640625 -0.0195312 47.789062 " fill-opacity="1" fill-rule="nonzero"/><path fill="#e1dcd8" d="M 5.324219 13.617188 L 6.050781 13.617188 C 5.898438 14.3125 5.679688 14.894531 5.355469 15.523438 L 5.089844 16.039062 C 4.882812 16.4375 4.671875 16.835938 4.457031 17.234375 C 3.796875 18.636719 3.367188 19.925781 3.273438 21.476562 C 3.183594 22.863281 2.75 23.996094 2.167969 25.25 C 1.941406 24.511719 1.914062 23.925781 2 23.160156 L 2.058594 22.589844 L 2.167969 22.097656 L 2.652344 21.613281 C 2.664062 21.046875 2.664062 21.046875 2.605469 20.402344 C 2.582031 19.316406 2.730469 18.632812 3.242188 17.675781 L 3.582031 17.082031 C 3.972656 16.316406 4.039062 15.675781 4.109375 14.828125 L 4.351562 14.34375 L 5.082031 14.101562 Z M 48.792969 74.210938 C 49.308594 74.316406 49.308594 74.316406 49.761719 74.453125 L 49.519531 74.9375 C 47.75 75.28125 45.945312 75.210938 44.148438 75.203125 L 43.160156 75.203125 C 42.300781 75.199219 41.4375 75.199219 40.578125 75.195312 C 39.695312 75.195312 38.816406 75.191406 37.933594 75.191406 C 36.210938 75.1875 34.488281 75.183594 32.765625 75.179688 L 32.765625 74.9375 C 34.464844 74.679688 36.140625 74.644531 37.855469 74.625 L 38.757812 74.613281 C 40.027344 74.59375 41.296875 74.578125 42.566406 74.5625 C 43.496094 74.546875 44.425781 74.535156 45.351562 74.519531 L 46.226562 74.511719 L 47.035156 74.5 L 47.746094 74.488281 C 48.3125 74.488281 48.3125 74.488281 48.792969 74.210938 " fill-opacity="1" fill-rule="nonzero"/><path fill="#f3a441" d="M 75.261719 40.035156 L 75.746094 40.277344 C 75.722656 41.3125 75.6875 42.347656 75.65625 43.382812 C 75.648438 43.675781 75.640625 43.972656 75.632812 44.273438 L 75.605469 45.128906 L 75.582031 45.917969 C 75.503906 46.578125 75.503906 46.578125 75.019531 47.304688 C 74.925781 47.707031 74.84375 48.109375 74.777344 48.519531 L 74.535156 48.519531 L 74.535156 40.519531 L 75.261719 40.519531 Z M 75.261719 40.035156 " fill-opacity="1" fill-rule="nonzero"/><path fill="#e1dcd8" d="M 3.867188 57.484375 C 4.863281 57.835938 5.6875 58.308594 6.539062 58.941406 L 6.539062 59.425781 L 7.25 59.523438 C 8.308594 59.671875 9.359375 59.859375 10.40625 60.046875 L 10.980469 60.148438 L 12.367188 60.394531 L 12.367188 60.636719 C 10.140625 60.738281 7.929688 60.652344 5.808594 59.910156 L 5.566406 59.183594 L 4.988281 59.089844 L 4.351562 58.941406 L 3.867188 58.457031 Z M 3.867188 57.484375 " fill-opacity="1" fill-rule="nonzero"/><path fill="#b3b3b4" d="M 35.40625 48.242188 L 35.902344 48.242188 C 36.253906 48.242188 36.601562 48.242188 36.949219 48.242188 C 37.480469 48.246094 38.015625 48.242188 38.546875 48.242188 C 38.886719 48.242188 39.226562 48.242188 39.5625 48.242188 L 40.5 48.246094 C 41.265625 48.277344 41.265625 48.277344 41.992188 48.519531 L 41.992188 49.003906 L 41.019531 49.003906 L 41.019531 48.519531 L 34.222656 48.519531 L 34.222656 49.003906 L 33.007812 49.246094 L 33.007812 52.394531 L 33.734375 52.394531 L 33.734375 53.367188 L 33.007812 53.125 L 33.007812 52.636719 L 32.277344 52.394531 C 32.253906 51.929688 32.234375 51.46875 32.21875 51.003906 L 32.183594 50.21875 L 32.277344 49.488281 C 33.246094 48.300781 33.914062 48.246094 35.40625 48.242188 " fill-opacity="1" fill-rule="nonzero"/><path fill="#e1dcd8" d="M 66.035156 9.253906 L 67.003906 10.222656 L 67.550781 10.738281 L 67.976562 11.191406 L 67.976562 11.675781 L 68.707031 11.917969 C 69.777344 12.914062 70.582031 14.054688 71.246094 15.347656 C 71.375 15.796875 71.375 15.796875 71.277344 16.339844 L 71.132812 16.765625 L 70.816406 16.207031 C 70.445312 15.5625 70.445312 15.5625 69.996094 15.144531 L 69.675781 14.828125 L 69.675781 14.34375 L 69.191406 14.34375 L 69.191406 13.375 L 68.742188 13.3125 L 68.21875 13.128906 C 67.882812 12.707031 67.882812 12.707031 67.597656 12.191406 C 67.300781 11.664062 67.046875 11.234375 66.613281 10.804688 L 66.277344 10.464844 C 66.109375 9.8125 66.109375 9.8125 66.035156 9.253906 " fill-opacity="1" fill-rule="nonzero"/><path fill="#b3b3b4" d="M 41.992188 52.394531 C 41.613281 52.875 41.613281 52.875 41.019531 53.367188 C 40.242188 53.476562 40.242188 53.476562 39.332031 53.460938 C 39.171875 53.457031 39.011719 53.457031 38.847656 53.457031 C 38.335938 53.449219 37.828125 53.4375 37.316406 53.425781 C 36.972656 53.421875 36.625 53.417969 36.277344 53.414062 C 35.429688 53.402344 34.582031 53.386719 33.734375 53.367188 L 33.734375 52.636719 C 34.746094 52.597656 35.757812 52.558594 36.769531 52.515625 L 37.636719 52.480469 C 39.089844 52.425781 40.539062 52.382812 41.992188 52.394531 " fill-opacity="1" fill-rule="nonzero"/><path fill="#f5f5f5" d="M 70.617188 57.441406 L 71.132812 57.484375 L 70.890625 58.457031 C 67.941406 59.34375 65.675781 59.515625 62.632812 58.941406 L 62.632812 58.699219 L 63.144531 58.664062 C 63.917969 58.613281 64.6875 58.558594 65.457031 58.5 L 66.261719 58.449219 C 67.828125 58.332031 69.164062 57.535156 70.617188 57.441406 " fill-opacity="1" fill-rule="nonzero"/><path fill="#eec799" d="M 61.421875 4.648438 C 61.855469 4.972656 62.292969 5.296875 62.726562 5.625 C 63.195312 5.976562 63.667969 6.320312 64.144531 6.660156 C 65.5625 7.695312 66.765625 8.65625 67.667969 10.195312 C 68.160156 11.015625 68.796875 11.691406 69.433594 12.402344 L 68.707031 12.402344 C 68.367188 12.007812 68.046875 11.605469 67.734375 11.191406 L 67.082031 10.539062 C 66.519531 9.980469 66.519531 9.980469 66.277344 9.496094 L 65.546875 9.253906 C 65.03125 8.796875 65.03125 8.796875 64.578125 8.28125 L 64.335938 7.554688 L 63.847656 7.3125 L 63.847656 6.828125 L 63.453125 6.664062 C 62.675781 6.234375 62.078125 5.730469 61.421875 5.132812 Z M 61.421875 4.648438 " fill-opacity="1" fill-rule="nonzero"/><path fill="#e1dcd8" d="M 50.976562 -2.867188 C 52.027344 -2.769531 52.757812 -2.34375 53.621094 -1.78125 C 54.957031 -0.820312 56.144531 0.316406 57.292969 1.496094 C 56.464844 1.238281 55.832031 1.007812 55.105469 0.527344 L 55.105469 0.0429688 L 53.890625 0.0429688 L 53.648438 -0.683594 L 52.921875 -0.683594 L 52.921875 -1.65625 L 51.464844 -1.65625 L 51.464844 -2.382812 L 50.976562 -2.382812 Z M 50.976562 -2.867188 " fill-opacity="1" fill-rule="nonzero"/><path fill="#45484c" d="M 46.121094 26.460938 L 46.121094 26.945312 L 45.605469 27.089844 L 44.9375 27.28125 L 44.269531 27.46875 C 43.65625 27.640625 43.65625 27.640625 43.207031 28.15625 L 42.386719 28.355469 L 41.507812 28.644531 C 40.949219 29.253906 40.949219 29.253906 40.535156 29.855469 L 40.050781 29.855469 C 40.203125 29.203125 40.203125 29.203125 40.535156 28.402344 C 41.222656 27.714844 41.808594 27.265625 42.707031 26.886719 C 43.855469 26.605469 44.9375 26.460938 46.121094 26.460938 " fill-opacity="1" fill-rule="nonzero"/><path fill="#f5f5f5" d="M 71.375 19.191406 C 72.222656 20.113281 72.496094 21.21875 72.863281 22.386719 C 72.988281 22.785156 73.117188 23.179688 73.246094 23.578125 L 73.414062 24.109375 C 73.53125 24.523438 73.53125 24.523438 73.804688 24.765625 C 73.824219 25.335938 73.824219 25.90625 73.820312 26.476562 L 73.8125 27.425781 L 73.804688 28.15625 C 73.464844 27.796875 73.464844 27.796875 73.078125 27.1875 C 72.929688 26.542969 72.808594 25.890625 72.710938 25.234375 C 72.480469 23.78125 72.195312 22.375 71.777344 20.957031 C 71.613281 20.375 71.488281 19.789062 71.375 19.191406 " fill-opacity="1" fill-rule="nonzero"/><path fill="#eec799" d="M 8.722656 8.527344 C 8.964844 9.253906 8.964844 9.253906 8.9375 9.828125 C 8.722656 10.464844 8.722656 10.464844 8.132812 11.144531 L 7.507812 11.675781 L 7.023438 11.675781 L 7.082031 12.222656 L 7.023438 12.886719 C 6.539062 13.449219 6.539062 13.449219 6.050781 13.859375 L 5.324219 13.617188 L 5.082031 14.34375 L 4.59375 14.101562 L 4.921875 13.667969 C 5.410156 13.019531 5.898438 12.371094 6.386719 11.722656 L 6.898438 11.039062 L 7.847656 9.78125 C 8.148438 9.367188 8.441406 8.949219 8.722656 8.527344 " fill-opacity="1" fill-rule="nonzero"/><path fill="#b3b3b4" d="M 34.222656 48.519531 L 41.019531 48.519531 L 41.019531 49.003906 L 40.53125 49.015625 C 39.792969 49.039062 39.058594 49.066406 38.320312 49.09375 L 37.550781 49.117188 C 36.28125 49.164062 35.15625 49.210938 33.980469 49.730469 C 33.417969 50.097656 33.417969 50.097656 33.007812 50.457031 L 33.007812 49.246094 L 34.222656 49.003906 Z M 34.222656 48.519531 " fill-opacity="1" fill-rule="nonzero"/><path fill="#eec799" d="M 21.109375 72.753906 C 22.011719 72.878906 22.742188 73.027344 23.535156 73.484375 L 23.535156 73.96875 L 25.722656 74.210938 L 25.722656 74.695312 C 25.175781 74.707031 24.628906 74.71875 24.082031 74.726562 L 23.160156 74.742188 C 22.324219 74.695312 22.324219 74.695312 21.738281 74.496094 L 21.351562 74.210938 C 21.167969 73.453125 21.167969 73.453125 21.109375 72.753906 " fill-opacity="1" fill-rule="nonzero"/><path fill="#e1dcd8" d="M 53.40625 71.300781 L 53.890625 71.300781 C 53.890625 71.964844 53.875 72.386719 53.648438 73 C 52.484375 74.289062 50.664062 75.132812 49.035156 75.664062 C 48.269531 75.75 47.621094 75.726562 46.847656 75.664062 C 47.730469 75.183594 48.519531 75.050781 49.519531 74.9375 L 49.761719 74.210938 L 50.222656 74.191406 L 50.824219 74.148438 L 51.421875 74.117188 L 51.949219 73.96875 C 52.253906 73.511719 52.253906 73.511719 52.433594 73 L 52.8125 72.5 C 53.207031 72.019531 53.207031 72.019531 53.40625 71.300781 " fill-opacity="1" fill-rule="nonzero"/><path fill="#f5f5f5" d="M 4.109375 56.515625 L 4.519531 56.726562 C 7.351562 58.109375 10.066406 58.128906 13.15625 58.152344 C 13.621094 58.160156 14.085938 58.167969 14.554688 58.175781 C 15.6875 58.191406 16.820312 58.203125 17.953125 58.214844 L 17.953125 58.457031 C 16.367188 58.484375 14.78125 58.507812 13.195312 58.523438 C 12.65625 58.527344 12.117188 58.535156 11.578125 58.546875 C 10.800781 58.5625 10.023438 58.570312 9.246094 58.574219 L 8.527344 58.59375 C 7.292969 58.59375 6.390625 58.464844 5.289062 57.886719 C 4.757812 57.574219 4.757812 57.574219 4.351562 57.242188 Z M 67.734375 12.402344 L 68.054688 12.753906 C 68.46875 13.1875 68.46875 13.1875 69.191406 13.375 L 69.191406 14.34375 L 69.675781 14.34375 C 70.71875 16.144531 70.71875 16.144531 71.132812 17.007812 L 71.375 17.007812 C 71.527344 17.828125 71.527344 17.828125 71.621094 18.707031 L 71.132812 19.191406 L 70.757812 18.367188 C 69.546875 15.71875 69.546875 15.71875 67.984375 13.269531 L 67.734375 12.886719 Z M 67.734375 12.402344 " fill-opacity="1" fill-rule="nonzero"/><path fill="#45484c" d="M 33.980469 33.492188 L 34.464844 33.976562 C 34.796875 35.230469 34.753906 36.488281 34.753906 37.777344 L 34.761719 38.46875 C 34.765625 40.015625 34.585938 41.441406 34.222656 42.941406 L 33.980469 42.941406 Z M 33.980469 33.492188 " fill-opacity="1" fill-rule="nonzero"/><path fill="#f5f5f5" d="M 24.75 -2.140625 L 25.480469 -2.140625 L 25.480469 -0.925781 L 24.964844 -0.839844 L 24.296875 -0.714844 L 23.628906 -0.597656 L 23.050781 -0.441406 L 22.566406 0.0429688 C 22.066406 0.195312 22.066406 0.195312 21.488281 0.316406 L 20.910156 0.4375 C 20.378906 0.527344 20.378906 0.527344 19.652344 0.527344 C 19.894531 0.0429688 19.894531 0.0429688 20.410156 -0.335938 C 21.214844 -0.738281 21.921875 -0.808594 22.808594 -0.925781 L 23.292969 -1.410156 C 23.929688 -1.441406 23.929688 -1.441406 24.507812 -1.410156 Z M 24.75 -2.140625 " fill-opacity="1" fill-rule="nonzero"/><path fill="#f3a441" d="M 1.4375 21.855469 L 1.921875 22.097656 C 1.953125 22.644531 1.953125 22.644531 1.921875 23.3125 L 1.695312 23.757812 C 1.402344 24.351562 1.292969 24.886719 1.179688 25.539062 C 1.109375 25.925781 1.035156 26.316406 0.953125 26.703125 L 0.710938 26.945312 C 0.640625 27.5625 0.601562 28.179688 0.558594 28.800781 L 0.464844 29.371094 L -0.0195312 29.855469 C -0.0859375 28.148438 0.148438 26.6875 0.574219 25.039062 L 0.742188 24.351562 C 0.949219 23.507812 1.164062 22.679688 1.4375 21.855469 M -0.0195312 47.789062 L 0.464844 48.277344 C 0.542969 48.976562 0.589844 49.660156 0.617188 50.367188 L 0.648438 50.953125 C 0.667969 51.433594 0.691406 51.914062 0.710938 52.394531 L 1.195312 52.636719 L 1.195312 54.578125 C 0.632812 54.179688 0.335938 53.941406 -0.0195312 53.367188 C -0.171875 52.40625 -0.132812 51.46875 -0.09375 50.503906 L -0.078125 49.714844 C -0.0625 49.070312 -0.0429688 48.429688 -0.0195312 47.789062 M 15.28125 2.707031 L 15.28125 3.191406 C 14.0625 4.105469 14.0625 4.105469 13.261719 4.300781 L 12.851562 4.40625 L 12.609375 5.132812 C 12.273438 5.542969 12.273438 5.542969 11.878906 5.859375 L 11.152344 5.859375 L 11.074219 6.296875 C 10.910156 6.828125 10.910156 6.828125 10.558594 7.253906 L 10.179688 7.554688 L 9.695312 7.554688 L 9.453125 8.527344 L 8.964844 8.28125 C 10.335938 5.964844 12.113281 4.4375 14.34375 2.957031 C 14.792969 2.707031 14.792969 2.707031 15.28125 2.707031 " fill-opacity="1" fill-rule="nonzero"/><path fill="#f5f5f5" d="M 34.222656 47.789062 C 35.25 47.785156 36.277344 47.78125 37.308594 47.777344 C 37.65625 47.777344 38.007812 47.773438 38.359375 47.773438 C 38.859375 47.769531 39.363281 47.769531 39.867188 47.765625 L 40.78125 47.761719 C 41.507812 47.789062 41.507812 47.789062 41.992188 48.03125 L 41.992188 48.519531 L 33.980469 48.277344 Z M 34.222656 47.789062 " fill-opacity="1" fill-rule="nonzero"/><path fill="#e1dcd8" d="M 50.976562 -2.382812 L 51.464844 -2.382812 L 51.464844 -1.65625 L 52.921875 -1.65625 L 52.921875 -0.683594 L 53.648438 -0.683594 L 53.890625 0.0429688 C 52.496094 0.0742188 52.496094 0.0742188 51.949219 -0.199219 L 51.949219 -0.683594 L 50.976562 -0.441406 Z M 18.679688 0.769531 L 19.164062 1.011719 L 18.527344 1.390625 C 17.898438 1.804688 17.472656 2.238281 17.011719 2.828125 C 16.34375 3.652344 15.675781 4.039062 14.707031 4.449219 L 14.308594 4.648438 L 14.066406 5.132812 L 13.578125 5.132812 C 13.914062 4.414062 14.242188 3.765625 14.792969 3.191406 C 15.445312 3.132812 15.445312 3.132812 16.007812 3.191406 L 16.007812 2.707031 C 16.40625 2.296875 16.40625 2.296875 16.933594 1.84375 L 17.453125 1.390625 C 17.953125 1.011719 17.953125 1.011719 18.679688 0.769531 " fill-opacity="1" fill-rule="nonzero"/><path fill="#eec799" d="M 2.410156 19.433594 C 2.894531 20.160156 2.894531 20.160156 2.957031 20.902344 L 2.894531 21.613281 L 2.410156 22.097656 C 2.316406 22.664062 2.285156 23.222656 2.25 23.796875 L 2.167969 24.28125 L 1.679688 24.523438 L 1.195312 25.25 C 1.265625 24.683594 1.347656 24.117188 1.4375 23.554688 L 1.679688 23.3125 C 1.679688 22.976562 1.667969 22.644531 1.648438 22.3125 C 1.632812 21.167969 1.894531 20.441406 2.410156 19.433594 " fill-opacity="1" fill-rule="nonzero"/><path fill="#e1dcd8" d="M 53.648438 69.363281 L 53.890625 69.363281 L 53.890625 71.300781 L 53.40625 71.300781 L 53.359375 71.816406 C 53.152344 72.554688 52.863281 73.089844 52.355469 73.671875 C 51.832031 74.054688 51.421875 74.109375 50.78125 74.179688 C 50.441406 74.199219 50.101562 74.207031 49.761719 74.210938 C 50.492188 73.726562 50.492188 73.726562 51.175781 73.46875 C 52.113281 72.898438 52.542969 72.289062 53.117188 71.375 C 53.464844 70.707031 53.609375 70.113281 53.648438 69.363281 " fill-opacity="1" fill-rule="nonzero"/><path fill="#f5f5f5" d="M 18.195312 58.457031 C 18.863281 58.515625 18.863281 58.515625 19.652344 58.699219 C 20.226562 59.167969 20.226562 59.167969 20.621094 59.667969 L 20.621094 60.152344 L 21.351562 60.394531 C 21.640625 61.136719 21.640625 61.136719 21.835938 61.847656 L 21.109375 61.363281 L 21.109375 60.878906 L 20.53125 60.667969 C 19.894531 60.394531 19.894531 60.394531 19.410156 59.910156 L 19.410156 59.183594 L 18.9375 59.089844 L 18.4375 58.941406 Z M 18.195312 58.457031 " fill-opacity="1" fill-rule="nonzero"/><path fill="#eec799" d="M 61.421875 4.648438 C 61.882812 4.992188 62.34375 5.339844 62.804688 5.6875 C 63.164062 5.953125 63.527344 6.214844 63.898438 6.460938 C 65.171875 7.339844 65.171875 7.339844 65.589844 8.023438 C 65.792969 8.496094 65.792969 8.496094 66.035156 9.253906 L 65.546875 9.253906 C 65.046875 8.8125 65.046875 8.8125 64.578125 8.28125 L 64.335938 7.554688 L 63.847656 7.3125 L 63.847656 6.828125 L 63.453125 6.664062 C 62.675781 6.234375 62.078125 5.730469 61.421875 5.132812 Z M 61.421875 4.648438 " fill-opacity="1" fill-rule="nonzero"/><path fill="#e1dcd8" d="M 14.308594 3.4375 L 14.792969 3.679688 C 13.820312 4.960938 12.691406 5.875 11.394531 6.828125 L 10.910156 6.585938 L 11.152344 5.859375 L 11.878906 5.859375 L 12.121094 5.132812 C 12.671875 4.476562 13.332031 4.101562 14.066406 3.679688 Z M 14.308594 3.4375 " fill-opacity="1" fill-rule="nonzero"/><path fill="#45484c" d="M 39.808594 30.097656 L 40.050781 30.097656 C 40.082031 30.792969 40.082031 30.792969 40.050781 31.550781 L 39.5625 32.035156 C 39.472656 32.71875 39.472656 32.71875 39.464844 33.515625 L 39.433594 34.40625 L 39.414062 35.339844 L 39.382812 36.277344 C 39.359375 37.046875 39.339844 37.8125 39.320312 38.582031 L 39.078125 38.582031 C 39.058594 37.484375 39.042969 36.390625 39.03125 35.292969 L 39.015625 34.355469 C 38.996094 31.777344 38.996094 31.777344 39.445312 30.726562 C 39.566406 30.519531 39.683594 30.3125 39.808594 30.097656 M 51.21875 24.765625 L 51.21875 25.25 C 50.332031 25.574219 49.441406 25.898438 48.550781 26.21875 L 47.714844 26.523438 C 47.09375 26.703125 47.09375 26.703125 46.121094 26.703125 L 46.363281 25.976562 C 46.785156 25.78125 46.785156 25.78125 47.328125 25.640625 L 47.914062 25.480469 L 48.535156 25.324219 L 49.148438 25.160156 C 50.648438 24.765625 50.648438 24.765625 51.21875 24.765625 " fill-opacity="1" fill-rule="nonzero"/><path fill="#f5f5f5" d="M 1.195312 53.367188 L 1.921875 53.851562 L 1.921875 54.335938 L 2.410156 54.335938 C 2.785156 54.847656 2.785156 54.847656 3.183594 55.515625 L 3.589844 56.179688 L 3.867188 56.757812 L 3.625 57.242188 C 3.257812 56.925781 3.257812 56.925781 2.894531 56.515625 L 2.894531 55.789062 L 2.167969 55.546875 C 1.878906 54.925781 1.878906 54.925781 1.679688 54.335938 L 1.195312 54.335938 Z M 5.566406 16.28125 L 5.808594 17.007812 C 5.59375 17.550781 5.59375 17.550781 5.261719 18.160156 C 4.75 19.128906 4.285156 20.117188 3.867188 21.128906 C 3.710938 20.734375 3.710938 20.734375 3.625 20.160156 C 3.839844 19.460938 3.839844 19.460938 4.167969 18.707031 L 4.492188 17.949219 C 4.800781 17.324219 5.128906 16.816406 5.566406 16.28125 " fill-opacity="1" fill-rule="nonzero"/><path fill="#b3b3b4" d="M 33.734375 52.636719 L 34.253906 52.753906 C 34.976562 52.886719 35.664062 52.929688 36.398438 52.957031 L 37.214844 52.988281 L 38.0625 53.015625 L 38.921875 53.046875 C 39.621094 53.074219 40.320312 53.097656 41.019531 53.125 L 41.019531 53.367188 L 33.734375 53.367188 Z M 33.734375 52.636719 " fill-opacity="1" fill-rule="nonzero"/><path fill="#45484c" d="M 42.160156 27.628906 L 42.964844 27.671875 L 42.722656 28.15625 L 42.160156 28.355469 C 41.363281 28.707031 41.058594 29.171875 40.535156 29.855469 L 40.050781 29.855469 C 40.25 29.167969 40.441406 28.550781 40.824219 27.945312 C 41.265625 27.671875 41.265625 27.671875 42.160156 27.628906 " fill-opacity="1" fill-rule="nonzero"/><path fill="#f5f5f5" d="M 41.992188 49.246094 L 42.964844 49.246094 L 43.449219 49.972656 C 43.378906 50.980469 43.285156 51.546875 42.722656 52.394531 L 42.722656 49.972656 L 41.992188 49.972656 Z M 41.992188 49.246094 " fill-opacity="1" fill-rule="nonzero"/><path fill="#e1dcd8" d="M 0.710938 48.761719 L 0.953125 48.761719 L 1.195312 52.636719 L 0.464844 52.394531 C 0.460938 51.835938 0.453125 51.273438 0.453125 50.714844 L 0.441406 49.769531 L 0.464844 49.003906 Z M 0.710938 48.761719 " fill-opacity="1" fill-rule="nonzero"/><path fill="#f5f5f5" d="M 2.894531 22.824219 C 3.136719 23.554688 3.136719 23.554688 3.0625 24.144531 L 2.789062 25.449219 L 2.652344 25.976562 L 2.410156 26.21875 C 2.355469 26.546875 2.308594 26.875 2.273438 27.203125 L 2.167969 28.15625 L 1.921875 28.15625 C 1.800781 26.144531 1.996094 24.640625 2.894531 22.824219 " fill-opacity="1" fill-rule="nonzero"/><path fill="#f3a441" d="M 1.4375 21.855469 L 1.921875 22.097656 C 1.980469 23.058594 1.8125 23.71875 1.4375 24.597656 L 1.164062 25.246094 L 0.953125 25.734375 L 0.464844 25.734375 Z M 1.4375 21.855469 " fill-opacity="1" fill-rule="nonzero"/><path fill="#e1dcd8" d="M 5.324219 13.617188 L 6.050781 13.617188 L 5.808594 14.585938 L 5.082031 14.585938 L 4.867188 15.023438 C 4.59375 15.554688 4.59375 15.554688 4.109375 16.28125 C 3.957031 15.859375 3.957031 15.859375 3.867188 15.3125 C 4.046875 14.78125 4.046875 14.78125 4.351562 14.34375 L 5.082031 14.101562 Z M 5.324219 13.617188 " fill-opacity="1" fill-rule="nonzero"/><path fill="#f5f5f5" d="M 3.378906 55.789062 C 3.714844 56.101562 4.039062 56.425781 4.351562 56.757812 L 4.351562 57.242188 L 5.035156 57.441406 C 5.808594 57.726562 5.808594 57.726562 6.265625 58.121094 L 6.539062 58.457031 C 5.773438 58.367188 5.125 58.230469 4.414062 57.941406 L 3.867188 57.484375 C 3.546875 56.59375 3.546875 56.59375 3.378906 55.789062 " fill-opacity="1" fill-rule="nonzero"/><path fill="#e1dcd8" d="M 5.566406 59.183594 C 7.117188 59.359375 8.644531 59.621094 10.179688 59.910156 L 10.179688 60.152344 C 8.695312 60.175781 7.28125 60.097656 5.808594 59.910156 Z M 5.566406 59.183594 " fill-opacity="1" fill-rule="nonzero"/><path fill="#eec799" d="M 69.433594 12.886719 C 70.261719 13.597656 70.722656 14.363281 71.222656 15.3125 C 71.375 15.796875 71.375 15.796875 71.28125 16.34375 L 71.132812 16.765625 C 70.246094 15.523438 69.773438 14.363281 69.433594 12.886719 " fill-opacity="1" fill-rule="nonzero"/><path fill="#f3a441" d="M 4.109375 59.183594 L 5.566406 59.183594 L 5.808594 59.667969 C 6.371094 59.84375 6.9375 60.007812 7.507812 60.152344 C 6.851562 60.390625 6.382812 60.386719 5.671875 60.347656 L 4.835938 60.152344 C 4.367188 59.652344 4.367188 59.652344 4.109375 59.183594 " fill-opacity="1" fill-rule="nonzero"/><path fill="#f5f5f5" d="M 22.566406 -0.683594 L 22.078125 0.0429688 C 21.5 0.273438 21.5 0.273438 20.835938 0.453125 L 20.164062 0.636719 L 19.652344 0.769531 L 19.894531 0.0429688 C 20.796875 -0.652344 21.441406 -0.761719 22.566406 -0.683594 " fill-opacity="1" fill-rule="nonzero"/><path fill="#e1dcd8" d="M 70.40625 57.484375 L 71.132812 57.484375 L 70.890625 58.457031 C 70.457031 58.578125 70.019531 58.699219 69.585938 58.820312 L 68.851562 59.023438 C 68.21875 59.183594 68.21875 59.183594 67.734375 59.183594 L 67.734375 58.699219 L 68.195312 58.617188 L 68.796875 58.5 L 69.394531 58.390625 C 69.566406 58.332031 69.742188 58.273438 69.917969 58.214844 Z M 70.40625 57.484375 " fill-opacity="1" fill-rule="nonzero"/><path fill="#45484c" d="M 63.121094 23.3125 C 64.210938 23.671875 65.179688 24.238281 66.035156 25.007812 L 66.035156 25.492188 C 65.347656 25.160156 64.679688 24.796875 64.03125 24.402344 L 63.511719 24.089844 L 63.121094 23.796875 Z M 63.121094 23.3125 " fill-opacity="1" fill-rule="nonzero"/><path fill="#eec799" d="M 2.410156 19.433594 C 2.894531 20.160156 2.894531 20.160156 2.972656 20.902344 L 2.894531 21.613281 L 2.167969 22.097656 C 2.015625 21.449219 2.015625 21.449219 1.921875 20.644531 C 2.152344 19.949219 2.152344 19.949219 2.410156 19.433594 " fill-opacity="1" fill-rule="nonzero"/><path fill="#e1dcd8" d="M 68.707031 12.402344 L 69.433594 12.644531 C 69.890625 13.386719 70.152344 13.925781 70.207031 14.796875 L 70.164062 15.3125 L 69.675781 14.34375 L 69.191406 14.34375 L 69.191406 13.375 L 68.707031 13.375 Z M 68.707031 12.402344 " fill-opacity="1" fill-rule="nonzero"/><path fill="#45484c" d="M 30.578125 29.613281 C 30.941406 29.753906 31.296875 29.902344 31.65625 30.050781 L 32.261719 30.296875 L 32.765625 30.582031 L 33.007812 31.308594 L 32.277344 31.308594 L 32.277344 30.824219 L 31.703125 30.765625 L 31.066406 30.582031 C 30.78125 30.085938 30.78125 30.085938 30.578125 29.613281 " fill-opacity="1" fill-rule="nonzero"/><path fill="#eec799" d="M 14.792969 2.707031 L 15.28125 2.707031 L 15.28125 3.191406 C 14.0625 4.105469 14.0625 4.105469 13.261719 4.300781 L 12.851562 4.40625 L 12.609375 5.132812 L 12.121094 4.890625 C 12.945312 4.019531 13.765625 3.324219 14.792969 2.707031 M 50.25 74.9375 C 49.761719 75.421875 49.761719 75.421875 49.035156 75.664062 C 48.65625 75.679688 48.277344 75.683594 47.898438 75.679688 L 47.300781 75.671875 L 46.847656 75.664062 C 48.125 75.027344 48.8125 74.914062 50.25 74.9375 " fill-opacity="1" fill-rule="nonzero"/><path fill="#45484c" d="M 71.863281 36.640625 L 72.105469 36.640625 L 72.105469 40.035156 L 71.375 39.792969 C 71.410156 39.449219 71.445312 39.105469 71.484375 38.761719 C 71.503906 38.570312 71.523438 38.378906 71.542969 38.183594 C 71.613281 37.652344 71.722656 37.15625 71.863281 36.640625 " fill-opacity="1" fill-rule="nonzero"/><path fill="#f5f5f5" d="M 7.023438 13.375 L 7.507812 13.375 C 7.1875 14.492188 6.726562 15.335938 6.050781 16.28125 L 5.808594 15.554688 C 6.160156 14.78125 6.160156 14.78125 6.539062 14.101562 L 7.023438 14.101562 Z M 7.023438 13.375 " fill-opacity="1" fill-rule="nonzero"/><path fill="#e1dcd8" d="M 8.964844 8.527344 L 10.421875 8.527344 L 8.964844 10.222656 L 8.722656 9.253906 Z M 8.964844 8.527344 " fill-opacity="1" fill-rule="nonzero"/><path fill="#eec799" d="M 52.191406 74.210938 C 51.449219 74.625 50.894531 74.925781 50.035156 74.984375 L 49.519531 74.9375 L 49.761719 74.210938 C 50.652344 74.027344 51.324219 73.910156 52.191406 74.210938 " fill-opacity="1" fill-rule="nonzero"/><path fill="#e1dcd8" d="M 22.808594 72.753906 L 24.75 73.484375 L 24.75 73.96875 L 25.238281 74.210938 C 24.433594 74.132812 24.433594 74.132812 23.535156 73.96875 C 23.066406 73.621094 23.066406 73.621094 22.808594 73.242188 Z M 22.808594 72.753906 " fill-opacity="1" fill-rule="nonzero"/><path fill="#f5f5f5" d="M 2.894531 21.855469 C 3.046875 22.261719 3.046875 22.261719 3.136719 22.824219 C 2.949219 23.449219 2.949219 23.449219 2.667969 24.097656 L 2.386719 24.753906 L 2.167969 25.25 C 2.03125 24.820312 2.03125 24.820312 1.921875 24.28125 C 2.066406 23.707031 2.226562 23.144531 2.410156 22.582031 L 2.894531 22.582031 Z M 2.894531 21.855469 " fill-opacity="1" fill-rule="nonzero"/><path fill="#e1dcd8" d="M 2.652344 19.433594 L 3.136719 19.433594 C 3.144531 19.820312 3.148438 20.210938 3.152344 20.597656 L 3.160156 21.253906 C 3.136719 21.855469 3.136719 21.855469 2.894531 22.582031 L 2.410156 22.582031 L 2.167969 23.066406 C 2.238281 22.664062 2.320312 22.257812 2.410156 21.855469 L 2.652344 21.613281 C 2.667969 21.246094 2.671875 20.875 2.667969 20.507812 L 2.660156 19.902344 Z M 2.652344 19.433594 " fill-opacity="1" fill-rule="nonzero"/><path fill="#7e685a" d="M 46.121094 26.460938 L 46.121094 26.945312 C 45.414062 27.25 44.957031 27.429688 44.179688 27.429688 L 44.179688 26.945312 L 43.449219 26.703125 C 44.355469 26.566406 45.203125 26.460938 46.121094 26.460938 " fill-opacity="1" fill-rule="nonzero"/><path fill="#eec799" d="M 21.59375 -1.167969 L 22.078125 -0.925781 C 21.457031 -0.441406 21.457031 -0.441406 20.621094 0.0429688 C 19.679688 0.101562 19.679688 0.101562 18.921875 0.0429688 C 19.453125 -0.488281 19.796875 -0.617188 20.5 -0.851562 L 21.085938 -1.050781 Z M 27.90625 -2.867188 C 27.664062 -2.503906 27.664062 -2.503906 27.179688 -2.140625 C 26.519531 -2.074219 25.902344 -2.105469 25.238281 -2.140625 L 25.238281 -2.625 C 26.140625 -2.792969 26.988281 -2.894531 27.90625 -2.867188 " fill-opacity="1" fill-rule="nonzero"/><path fill="#e1dcd8" d="M 32.277344 51.667969 L 33.007812 51.667969 L 33.007812 52.394531 L 33.734375 52.394531 L 33.734375 53.367188 L 33.007812 53.125 L 33.007812 52.636719 L 32.277344 52.394531 Z M 52.921875 -1.410156 L 53.890625 -1.167969 L 53.890625 -0.683594 L 54.863281 -0.199219 L 53.890625 0.0429688 L 53.648438 -0.683594 L 52.921875 -0.683594 Z M 52.921875 -1.410156 " fill-opacity="1" fill-rule="nonzero"/><path fill="#b3b3b4" d="M 41.992188 49.972656 L 42.722656 49.972656 L 42.722656 51.667969 L 41.992188 51.667969 Z M 41.992188 49.972656 " fill-opacity="1" fill-rule="nonzero"/><path fill="#f5f5f5" d="M 1.679688 25.25 L 1.921875 25.25 C 1.945312 25.59375 1.957031 25.9375 1.96875 26.28125 L 1.996094 26.859375 C 1.921875 27.429688 1.921875 27.429688 1.554688 27.988281 L 1.195312 28.402344 C 1.230469 28.011719 1.265625 27.621094 1.300781 27.234375 C 1.320312 27.015625 1.339844 26.800781 1.359375 26.578125 C 1.4375 25.976562 1.4375 25.976562 1.679688 25.25 " fill-opacity="1" fill-rule="nonzero"/><path fill="#45484c" d="M 58.261719 22.582031 L 58.261719 23.066406 C 57.746094 23.460938 57.746094 23.460938 57.046875 23.796875 C 56.246094 23.839844 56.246094 23.839844 55.589844 23.796875 C 56.289062 23.101562 57.257812 22.582031 58.261719 22.582031 " fill-opacity="1" fill-rule="nonzero"/><path fill="#f5f5f5" d="M 52.921875 67.90625 L 53.648438 68.878906 L 53.648438 69.605469 L 53.164062 69.605469 L 53.164062 70.816406 L 52.921875 70.816406 Z M 8.722656 10.949219 L 9.207031 10.949219 C 8.871094 12.023438 8.332031 12.617188 7.507812 13.375 C 7.785156 12.433594 8.050781 11.675781 8.722656 10.949219 " fill-opacity="1" fill-rule="nonzero"/><path fill="#f3a441" d="M 65.304688 7.796875 C 65.882812 8.085938 65.882812 8.085938 66.519531 8.527344 C 66.839844 9.175781 66.839844 9.175781 67.003906 9.738281 C 66.429688 9.449219 66.429688 9.449219 65.792969 9.011719 C 65.472656 8.359375 65.472656 8.359375 65.304688 7.796875 " fill-opacity="1" fill-rule="nonzero"/><path fill="#eec799" d="M 19.894531 0.0429688 L 19.652344 0.769531 C 19.148438 0.945312 19.148438 0.945312 18.542969 1.058594 L 17.933594 1.171875 L 17.464844 1.253906 C 17.707031 0.769531 17.707031 0.769531 18.269531 0.375 C 18.921875 0.0429688 18.921875 0.0429688 19.894531 0.0429688 " fill-opacity="1" fill-rule="nonzero"/><path fill="#45484c" d="M 13.824219 25.976562 L 14.308594 26.21875 C 13.882812 26.71875 13.882812 26.71875 13.335938 27.1875 C 12.789062 27.128906 12.789062 27.128906 12.367188 26.945312 C 12.863281 26.402344 13.097656 26.21875 13.824219 25.976562 " fill-opacity="1" fill-rule="nonzero"/><path fill="#f5f5f5" d="M 71.863281 55.789062 L 72.105469 56.273438 C 71.757812 56.910156 71.757812 56.910156 71.375 57.484375 L 70.40625 57.242188 C 70.738281 56.878906 70.738281 56.878906 71.132812 56.515625 L 71.621094 56.515625 Z M 71.863281 55.789062 " fill-opacity="1" fill-rule="nonzero"/><path fill="#e1dcd8" d="M 8.238281 10.464844 L 8.480469 11.191406 C 8.140625 11.742188 7.703125 12.167969 7.265625 12.644531 C 7.070312 12.238281 7.070312 12.238281 7.023438 11.675781 C 7.617188 11.011719 7.617188 11.011719 8.238281 10.464844 " fill-opacity="1" fill-rule="nonzero"/><path fill="#f3a441" d="M 11.878906 4.648438 L 12.367188 4.890625 C 12.214844 5.34375 12.214844 5.34375 11.878906 5.859375 C 11.121094 6.164062 11.121094 6.164062 10.421875 6.34375 Z M 11.878906 4.648438 " fill-opacity="1" fill-rule="nonzero"/><path fill="#eec799" d="M 0.953125 25.976562 L 1.195312 25.976562 C 1.242188 26.644531 1.242188 26.644531 1.195312 27.429688 C 0.832031 28.007812 0.832031 28.007812 0.464844 28.402344 C 0.433594 27.640625 0.410156 27.078125 0.710938 26.371094 Z M 0.953125 25.976562 " fill-opacity="1" fill-rule="nonzero"/><path fill="#f5f5f5" d="M 15.523438 3.679688 L 16.25 3.921875 L 14.792969 5.132812 L 14.550781 4.40625 C 14.992188 4.027344 14.992188 4.027344 15.523438 3.679688 M 18.195312 58.457031 L 19.652344 58.699219 L 19.894531 59.425781 C 19.402344 59.277344 18.917969 59.117188 18.4375 58.941406 Z M 33.734375 48.519531 L 33.492188 49.246094 L 32.765625 49.246094 L 32.765625 49.972656 L 32.277344 49.972656 C 32.425781 49.5625 32.589844 49.160156 32.765625 48.761719 C 33.25 48.519531 33.25 48.519531 33.734375 48.519531 " fill-opacity="1" fill-rule="nonzero"/><path fill="#e1dcd8" d="M 64.578125 7.554688 L 65.304688 7.796875 C 65.714844 8.539062 65.714844 8.539062 66.035156 9.253906 L 65.546875 9.253906 C 65.03125 8.8125 65.03125 8.8125 64.578125 8.28125 Z M 1.195312 53.367188 L 2.167969 54.335938 L 1.921875 55.0625 L 1.679688 54.335938 L 1.195312 54.335938 Z M 1.195312 53.367188 " fill-opacity="1" fill-rule="nonzero"/><path fill="#eec799" d="M 0.464844 52.394531 L 1.195312 52.636719 L 1.195312 54.09375 C 0.832031 53.789062 0.832031 53.789062 0.464844 53.367188 Z M 0.464844 52.394531 " fill-opacity="1" fill-rule="nonzero"/><path fill="#45484c" d="M 69.191406 28.15625 C 69.605469 28.46875 70.011719 28.792969 70.40625 29.128906 L 70.40625 29.613281 L 69.675781 29.371094 L 69.675781 28.886719 L 69.191406 28.886719 Z M 69.191406 28.15625 " fill-opacity="1" fill-rule="nonzero"/><path fill="#e1dcd8" d="M 69.191406 13.859375 L 70.164062 14.101562 L 70.164062 15.3125 L 69.675781 14.34375 L 69.191406 14.34375 Z M 6.050781 58.457031 L 7.507812 58.699219 L 7.507812 59.183594 C 6.917969 59.089844 6.917969 59.089844 6.292969 58.941406 Z M 6.050781 58.457031 " fill-opacity="1" fill-rule="nonzero"/><path fill="#f5f5f5" d="M 57.046875 1.496094 C 57.460938 1.644531 57.863281 1.804688 58.261719 1.980469 L 58.507812 2.464844 L 57.292969 2.222656 Z M 57.046875 1.496094 " fill-opacity="1" fill-rule="nonzero"/><path fill="#e1dcd8" d="M 22.324219 -1.410156 C 22.839844 -1.320312 22.839844 -1.320312 23.292969 -1.167969 L 22.808594 -0.683594 C 22.292969 -0.777344 22.292969 -0.777344 21.835938 -0.925781 Z M 23.78125 73.242188 L 24.75 73.484375 L 24.75 73.96875 L 25.238281 74.210938 C 24.78125 74.132812 24.78125 74.132812 24.265625 73.96875 Z M 22.808594 73.242188 L 23.535156 73.484375 L 23.535156 73.96875 L 24.023438 74.210938 L 23.050781 74.210938 Z M 22.808594 73.242188 " fill-opacity="1" fill-rule="nonzero"/><path fill="#f5f5f5" d="M 18.195312 59.183594 L 19.410156 59.183594 L 19.410156 59.910156 L 18.195312 59.425781 Z M 33.980469 53.367188 L 34.949219 53.367188 L 34.949219 54.09375 L 33.980469 53.851562 Z M 33.980469 53.367188 " fill-opacity="1" fill-rule="nonzero"/><path fill="#7e685a" d="M 74.535156 39.792969 L 75.746094 39.792969 L 75.261719 40.035156 L 75.261719 40.519531 L 74.535156 40.519531 Z M 74.535156 39.792969 " fill-opacity="1" fill-rule="nonzero"/><path fill="#45484c" d="M 40.535156 28.402344 L 40.777344 28.402344 L 40.777344 29.613281 L 40.050781 29.855469 Z M 40.535156 28.402344 " fill-opacity="1" fill-rule="nonzero"/><path fill="#b3b3b4" d="M 33.734375 52.636719 L 34.464844 52.636719 L 34.707031 53.367188 L 33.734375 53.367188 Z M 33.492188 49.003906 L 33.980469 49.246094 L 33.492188 49.972656 L 33.007812 49.972656 L 33.007812 49.246094 Z M 33.492188 49.003906 " fill-opacity="1" fill-rule="nonzero"/><path fill="#f5f5f5" d="M 40.777344 47.789062 L 41.992188 48.03125 L 41.992188 48.519531 C 41.523438 48.425781 41.523438 48.425781 41.019531 48.277344 Z M 40.777344 47.789062 " fill-opacity="1" fill-rule="nonzero"/><path fill="#eec799" d="M 0.464844 51.667969 L 0.953125 51.667969 L 1.195312 52.636719 L 0.464844 52.394531 Z M 0.464844 51.667969 " fill-opacity="1" fill-rule="nonzero"/><path fill="#e1dcd8" d="M 41.992188 49.246094 L 42.722656 49.246094 L 42.722656 49.972656 L 41.992188 49.972656 Z M 41.992188 49.246094 " fill-opacity="1" fill-rule="nonzero"/><path fill="#45484c" d="M 5.324219 40.761719 L 5.808594 41.488281 L 5.324219 42.214844 C 5.230469 41.8125 5.148438 41.410156 5.082031 41.003906 Z M 5.324219 40.761719 " fill-opacity="1" fill-rule="nonzero"/><path fill="#b3b3b4" d="M 33.007812 51.667969 L 33.734375 51.910156 L 33.734375 52.394531 L 33.007812 52.394531 Z M 33.007812 51.667969 " fill-opacity="1" fill-rule="nonzero"/><path fill="#e1dcd8" d="M 33.25 48.519531 L 33.734375 48.519531 L 33.492188 49.246094 L 33.007812 49.246094 Z M 33.25 48.519531 " fill-opacity="1" fill-rule="nonzero"/><path fill="#45484c" d="M 5.082031 39.308594 L 5.808594 39.550781 L 5.324219 40.277344 Z M 5.082031 39.308594 " fill-opacity="1" fill-rule="nonzero"/><path fill="#f5f5f5" d="M 13.09375 5.132812 L 13.578125 5.132812 L 13.335938 5.859375 L 12.851562 5.859375 Z M 13.09375 5.132812 " fill-opacity="1" fill-rule="nonzero"/></svg>