<svg xmlns="http://www.w3.org/2000/svg" x="0px" y="0px" width="100" height="100" viewBox="0,0,256,256">
    <g transform="translate(-30.72,-30.72) scale(1.24,1.24)"><g fill="none" fill-rule="nonzero" stroke="none" stroke-width="1" stroke-linecap="butt" stroke-linejoin="miter" stroke-miterlimit="10" stroke-dasharray="" stroke-dashoffset="0" font-family="none" font-weight="none" font-size="none" text-anchor="none" style="mix-blend-mode: normal"><g transform="scale(2.13333,2.13333)"><path d="M96,93.01h-72l4.39,-24h63.22z" fill="#000000" opacity="0.35"></path><path d="M107,54.585c0,12.722 -7.129,24.042 -18.207,31.282c-8.65,-0.394 -48.936,0.572 -57.748,-0.106c-10.985,-7.244 -18.045,-18.516 -18.045,-31.176c0,-21.856 21.043,-39.575 47,-39.575c25.957,0 47,17.719 47,39.575z" fill="#000000" opacity="0.35"></path><ellipse cx="60" cy="50.01" rx="46" ry="39" fill="#ffc400"></ellipse><rect x="42" y="86.01" width="36" height="14.99" fill="#000000" opacity="0.35"></rect><rect x="42" y="83.01" width="36" height="14.99" fill="#ffc400"></rect><path d="M80.606,49.127c-4.087,-0.451 -7.944,0.43 -11.191,2.264c-5.801,3.276 -13.024,3.283 -18.823,0.004c-3.255,-1.84 -7.123,-2.723 -11.222,-2.265c-8.434,0.942 -15.26,7.733 -16.241,16.163c-1.284,11.038 7.162,20.405 17.871,20.692v0.025h37v-0.025c0.168,0.005 0.331,0.025 0.5,0.025c10.911,0 19.616,-9.446 18.383,-20.607c-0.937,-8.482 -7.794,-15.34 -16.277,-16.276z" fill="#ffc400"></path><path d="M96,90.01h-72l4.39,-24h63.22z" fill="#ffc400"></path><circle cx="42" cy="70.01" r="10" fill="#000000" opacity="0.35"></circle><circle cx="78" cy="70.01" r="10" fill="#000000" opacity="0.35"></circle><circle cx="42" cy="67.01" r="10" fill="#0e0600"></circle><circle cx="78" cy="67.01" r="10" fill="#0e0600"></circle><path d="M66,93.01h-11l3,-14h5z" fill="#000000" opacity="0.35"></path><path d="M66,90.01h-11l3,-14h5z" fill="#0e0600"></path><path d="M46.5,111v0c-2.485,0 -4.5,-2.015 -4.5,-4.5v-5.5h9v5.5c0,2.485 -2.015,4.5 -4.5,4.5z" fill="#000000" opacity="0.35"></path><path d="M55.5,111v0c-2.485,0 -4.5,-2.015 -4.5,-4.5v-6.5h9v6.5c0,2.485 -2.015,4.5 -4.5,4.5z" fill="#000000" opacity="0.35"></path><path d="M64.5,111v0c-2.485,0 -4.5,-2.015 -4.5,-4.5v-5.5h9v5.5c0,2.485 -2.015,4.5 -4.5,4.5z" fill="#000000" opacity="0.35"></path><path d="M73.5,111v0c-2.485,0 -4.5,-2.015 -4.5,-4.5v-5.5h9v5.5c0,2.485 -2.015,4.5 -4.5,4.5z" fill="#000000" opacity="0.35"></path><path d="M46.5,108v0c-2.485,0 -4.5,-2.015 -4.5,-4.5v-5.5h9v5.5c0,2.485 -2.015,4.5 -4.5,4.5z" fill="#ffc400"></path><path d="M55.5,108v0c-2.485,0 -4.5,-2.015 -4.5,-4.5v-5.5h9v5.5c0,2.485 -2.015,4.5 -4.5,4.5z" fill="#ffc400"></path><path d="M64.5,108v0c-2.485,0 -4.5,-2.015 -4.5,-4.5v-5.5h9v5.5c0,2.485 -2.015,4.5 -4.5,4.5z" fill="#ffc400"></path><path d="M73.5,108v0c-2.485,0 -4.5,-2.015 -4.5,-4.5v-5.5h9v5.5c0,2.485 -2.015,4.5 -4.5,4.5z" fill="#ffc400"></path></g></g></g>
</svg>