<svg xmlns="http://www.w3.org/2000/svg" x="0px" y="0px" width="100" height="100" viewBox="0,0,256,256">
    <g transform="translate(-57.6,-57.6) scale(1.45,1.45)"><g fill="#000000" fill-rule="nonzero" stroke="none" stroke-width="1" stroke-linecap="butt" stroke-linejoin="miter" stroke-miterlimit="10" stroke-dasharray="" stroke-dashoffset="0" font-family="none" font-weight="none" font-size="none" text-anchor="none" style="mix-blend-mode: normal"><g transform="scale(4,4)"><path d="M10.0625,1.83594c-0.8125,0.00781 -1.625,0.25391 -2.29687,0.73828c-1.16016,0.83203 -1.78516,2.16797 -1.61719,3.51563c-1.38672,-0.10547 -2.74219,0.51563 -3.57812,1.67578c-0.96875,1.35156 -0.97656,3.23828 -0.02344,4.59375c1.20703,1.71484 3.47266,2.22656 5.32031,1.16406l4.86328,4.86328c-1.34375,2.21094 -2.25391,4.66406 -2.58203,7.27344c-0.57422,4.58203 0.51953,9.03906 3.16406,12.89844c0.86328,1.25391 1.10938,2.80859 0.66016,4.28516c-0.16016,0.53516 -0.1875,1.07813 -0.12891,1.60938l-6.01953,5.99609c-1.80469,-1.03516 -4.07031,-0.52344 -5.27734,1.19141c-0.95312,1.35547 -0.94141,3.24609 0.02734,4.59375c0.83203,1.16016 2.16406,1.78516 3.51563,1.61719c-0.10937,1.40625 0.51563,2.74219 1.67578,3.57422c0.67969,0.49219 1.49609,0.73438 2.3125,0.73438c0.80469,0 1.60938,-0.23437 2.28125,-0.70703c1.71484,-1.20703 2.22656,-3.47266 1.16016,-5.31641l7.15234,-7.15234c0,0.0625 0.01953,0.12109 0.00781,0.18359l-0.88672,5.34375c-0.14453,0.87109 0.10156,1.75781 0.67188,2.42969c0.57031,0.67578 1.40625,1.05859 2.28906,1.05859h18.49219c0.88281,0 1.71875,-0.38672 2.28906,-1.0625c0.57031,-0.67187 0.8125,-1.55859 0.66797,-2.42578l-0.88672,-5.35156c-0.00781,-0.04687 0.01172,-0.08594 0.01172,-0.13281l7.12109,7.14453c-1.03516,1.80469 -0.52344,4.07422 1.19141,5.28125c0.67188,0.46875 1.47656,0.70313 2.28125,0.70313c0.80469,0 1.60547,-0.23437 2.27734,-0.70312c1.18359,-0.83594 1.82031,-2.18359 1.64844,-3.54687c1.43359,0.11328 2.77344,-0.52344 3.60547,-1.70703c0.94141,-1.34375 0.94141,-3.21875 -0.00391,-4.55859c-1.20312,-1.71484 -3.46875,-2.22656 -5.3125,-1.16016l-5.98437,-5.98437c0.06641,-0.55078 0.03516,-1.11719 -0.13281,-1.67578c-0.4375,-1.45312 -0.19922,-3.00781 0.66406,-4.25781c2.16797,-3.16016 3.31641,-6.8125 3.31641,-10.5625c0,-3.41016 -0.94141,-6.68359 -2.69922,-9.59375l4.87109,-4.85547c1.80469,1.03516 4.07422,0.52344 5.28125,-1.19141c0.95313,-1.35547 0.94141,-3.24609 -0.02734,-4.59375c-0.83203,-1.16016 -2.17187,-1.78906 -3.51953,-1.61719c0.11328,-1.40234 -0.51172,-2.74219 -1.67187,-3.57812c-1.34766,-0.96875 -3.23828,-0.97656 -4.59375,-0.02344c-1.71484,1.20703 -2.22656,3.47656 -1.16406,5.32031l-4.61328,4.60938c-4.51172,-3.33594 -10.28906,-4.92188 -16.1875,-4.36719c-4.32031,0.40234 -8.27734,1.98047 -11.50391,4.35547l-4.62109,-4.64062c1.03516,-1.80078 0.52344,-4.07031 -1.19141,-5.27734c-0.67969,-0.47656 -1.48828,-0.71484 -2.29687,-0.71094zM10.06641,3.83594c0.40625,0 0.8125,0.11328 1.14063,0.34766c0.86328,0.60938 1.12891,1.74609 0.60938,2.64453c-0.46875,0.82031 -0.35547,1.80859 0.29297,2.45313l4.46875,4.46875c-1.00781,0.89844 -1.90625,1.89063 -2.70703,2.94922l-4.58984,-4.58984c-0.38281,-0.38281 -0.88281,-0.57812 -1.39844,-0.57812c-0.35547,0 -0.71875,0.09375 -1.05469,0.28516c-0.89844,0.51563 -2.03906,0.25781 -2.64844,-0.60937c-0.46484,-0.66016 -0.45703,-1.61719 0.01563,-2.27344c0.42188,-0.58594 1.09375,-0.91016 1.79688,-0.84766c0.57031,0.04688 1.11719,-0.16797 1.52344,-0.57031c0.40625,-0.40625 0.61328,-0.96094 0.57031,-1.52344c-0.05859,-0.69922 0.25781,-1.37109 0.84375,-1.79687c0.33203,-0.23437 0.73438,-0.35547 1.13672,-0.35937zM53.93359,3.83594c0.40234,0.00391 0.80469,0.12109 1.13281,0.35937c0.58594,0.42188 0.90625,1.09375 0.85156,1.79688c-0.04687,0.5625 0.16016,1.11719 0.56641,1.52344c0.40625,0.40234 0.96484,0.61719 1.51953,0.57031c0.71484,-0.0625 1.37891,0.26172 1.79688,0.84375c0.47656,0.66016 0.48047,1.61719 0.01563,2.27734c-0.60937,0.86328 -1.74609,1.125 -2.64453,0.60938c-0.82031,-0.46875 -1.80469,-0.35547 -2.45312,0.29297l-4.58203,4.58203c-0.75391,-0.99609 -1.60547,-1.94141 -2.5625,-2.81641c-0.05078,-0.04687 -0.10156,-0.08594 -0.14844,-0.12891l4.46484,-4.46484c0.64453,-0.64844 0.76172,-1.63281 0.29297,-2.45312c-0.51562,-0.89844 -0.25391,-2.03516 0.60938,-2.64453c0.32813,-0.23438 0.73438,-0.34766 1.14063,-0.34766zM31.98438,10c5.34766,0 10.44922,1.89844 14.23828,5.35156c3.72656,3.39062 5.77734,7.88281 5.77734,12.64844c0,3.34375 -1.02344,6.60547 -2.96875,9.42578c-1.20312,1.75781 -1.54297,3.93359 -0.92187,5.99609c0.1875,0.61328 0.07422,1.25781 -0.30859,1.76953c-0.37891,0.51563 -0.96484,0.80859 -1.60156,0.80859h-1.89062c-0.88672,0 -1.71875,0.38672 -2.29297,1.0625c-0.57031,0.67188 -0.8125,1.55859 -0.66797,2.42578l0.88672,5.35156c0.05078,0.29297 -0.03125,0.57813 -0.22266,0.80469c-0.19531,0.23047 -0.46484,0.35547 -0.76562,0.35547h-18.49219c-0.30078,0 -0.57031,-0.125 -0.76562,-0.35547c-0.19141,-0.22656 -0.26953,-0.51562 -0.22266,-0.80859l0.88672,-5.34766c0.14453,-0.86719 -0.09766,-1.75391 -0.66797,-2.42969c-0.57422,-0.67578 -1.40625,-1.05859 -2.29297,-1.05859h-1.89062c-0.63672,0 -1.22266,-0.29297 -1.60156,-0.80859c-0.38281,-0.51562 -0.49609,-1.15625 -0.30469,-1.79297c0.61719,-2.03906 0.27734,-4.21484 -0.92969,-5.97656c-2.36719,-3.44141 -3.34766,-7.42578 -2.83594,-11.51562c1.04688,-8.29687 8.5,-14.94531 17.73047,-15.80859c0.71094,-0.0625 1.41797,-0.09766 2.125,-0.09766zM32.48828,12.57813c-0.79297,-0.01953 -1.58984,0.00781 -2.38672,0.08203c-2.85937,0.26563 -5.64844,1.1875 -8.07031,2.65625c-0.46875,0.28906 -0.61719,0.90625 -0.33203,1.375c0.1875,0.3125 0.51563,0.48047 0.85547,0.48047c0.17578,0 0.35547,-0.04687 0.51953,-0.14453c2.16016,-1.31641 4.65234,-2.13672 7.21094,-2.375c1.4375,-0.13281 2.875,-0.10156 4.27734,0.10156c0.54297,0.07422 1.05469,-0.29687 1.12891,-0.84766c0.08203,-0.54297 -0.29687,-1.05078 -0.84375,-1.12891c-0.77734,-0.11328 -1.56641,-0.17969 -2.35937,-0.19922zM38.82813,13.87109c-0.39062,0.00781 -0.75781,0.24609 -0.91016,0.62891c-0.20312,0.51563 0.04688,1.09766 0.5625,1.30078c0.8125,0.32422 1.60547,0.71484 2.35156,1.16406c0.16406,0.09375 0.33984,0.14063 0.51172,0.14063c0.34375,0 0.67578,-0.17578 0.85938,-0.49219c0.28516,-0.47266 0.12891,-1.08594 -0.34375,-1.36719c-0.83984,-0.5 -1.73047,-0.94141 -2.64062,-1.30469c-0.12891,-0.05078 -0.26172,-0.07422 -0.39062,-0.07031zM21.10156,28.64844c-0.52344,-0.01953 -1.05469,0.10938 -1.54297,0.375c-0.97656,0.53516 -1.55859,1.51953 -1.55859,2.63281v3.30078c0,1.65234 1.34766,3 3,3h4.625c1.4375,0 2.625,-0.89062 3.03125,-2.26953c0.40234,-1.38281 -0.12109,-2.77344 -1.33203,-3.54687l-4.70703,-3.01562c-0.46875,-0.29687 -0.99219,-0.45703 -1.51562,-0.47656zM42.8125,28.64844c-0.52344,0.01953 -1.04687,0.17969 -1.51562,0.47656l-4.70703,3.01563c-1.21484,0.77344 -1.73437,2.16406 -1.32812,3.54688c0.40234,1.37891 1.58984,2.26563 3.02734,2.26563h4.62109c1.65625,0 3,-1.34375 3,-3v-3.30078c0,-1.11328 -0.58203,-2.09766 -1.55469,-2.63281c-0.48828,-0.26562 -1.01953,-0.39062 -1.54297,-0.37109zM42.90625,30.64844c0.21875,0 0.39453,0.07813 0.48438,0.12891c0.15625,0.08203 0.51953,0.33984 0.51953,0.875v3.30469c0,0.55078 -0.44531,1 -1,1h-4.62109c-0.80469,0 -1.05469,-0.64062 -1.10937,-0.83203c-0.05859,-0.19531 -0.19141,-0.86719 0.48828,-1.30078l4.70703,-3.01172c0.1875,-0.12109 0.37109,-0.16406 0.53125,-0.16406zM21.00781,30.65234c0.16016,0 0.34375,0.03906 0.53125,0.16016l4.70703,3.01172c0.67969,0.43359 0.54688,1.10547 0.48828,1.30078c-0.05859,0.19141 -0.30469,0.83203 -1.10937,0.83203h-4.625c-0.55078,0 -1,-0.44922 -1,-1v-3.30078c0,-0.53516 0.36328,-0.79297 0.51953,-0.87891c0.08984,-0.05078 0.26953,-0.125 0.48828,-0.125zM32,36c-1.01562,0 -1.93359,0.63672 -2.28516,1.58203l-1.63672,4.36328c-0.34766,0.92188 -0.21875,1.95313 0.34375,2.76172c0.55859,0.8125 1.48047,1.29297 2.46484,1.29297h2.22656c0.98438,0 1.90625,-0.48047 2.46484,-1.29297c0.5625,-0.80469 0.69141,-1.83984 0.34375,-2.75781l-1.63672,-4.36719c-0.35156,-0.94531 -1.26953,-1.58203 -2.28516,-1.58203zM32,38c0.18359,0 0.35156,0.11328 0.41406,0.28516l1.63672,4.36328c0.11719,0.3125 0.07422,0.64844 -0.11328,0.92188c-0.19141,0.27344 -0.49219,0.42969 -0.82422,0.42969h-2.22656c-0.33594,0 -0.63281,-0.15625 -0.82422,-0.42969c-0.1875,-0.27344 -0.23047,-0.60937 -0.11328,-0.92187l1.63672,-4.36328c0.0625,-0.17187 0.23047,-0.28516 0.41406,-0.28516zM14.6875,46.48438c0.76172,0.95703 1.88281,1.51563 3.11328,1.51563h1.02734l-6.71875,6.71875c-0.64453,0.64844 -0.76172,1.63281 -0.29297,2.45313c0.51563,0.89844 0.25391,2.03516 -0.60937,2.64453c-0.66016,0.46484 -1.61719,0.46094 -2.27344,-0.01172c-0.58594,-0.42187 -0.90625,-1.09375 -0.84766,-1.79687c0.04297,-0.5625 -0.16406,-1.11719 -0.57031,-1.52344c-0.37109,-0.36719 -0.86328,-0.57422 -1.375,-0.57422c-0.04687,0 -0.09766,0 -0.14844,0.00781c-0.71094,0.05469 -1.375,-0.26562 -1.79687,-0.85156c-0.47266,-0.65625 -0.47656,-1.61328 -0.01172,-2.27344c0.60938,-0.86328 1.74609,-1.125 2.64453,-0.60937c0.82031,0.47266 1.80469,0.35547 2.45313,-0.29297zM49.3125,46.48438l5.40625,5.40625c0.64844,0.64844 1.63281,0.76563 2.45313,0.29297c0.89844,-0.51562 2.03516,-0.25391 2.64453,0.60938c0.46094,0.65234 0.46094,1.60156 0,2.25391c-0.42187,0.60156 -1.10156,0.92578 -1.8125,0.86719c-0.56641,-0.04687 -1.11328,0.16797 -1.51953,0.57031c-0.40625,0.40625 -0.61328,0.96094 -0.56641,1.51953c0.05469,0.71484 -0.26953,1.39063 -0.86719,1.8125c-0.65234,0.46094 -1.60547,0.46094 -2.25781,0c-0.86328,-0.60937 -1.12891,-1.74609 -0.60937,-2.64453c0.46875,-0.82031 0.35547,-1.80469 -0.29297,-2.45312l-6.71875,-6.71875h1.02734c1.23047,0 2.35156,-0.55859 3.11328,-1.51562zM27,50.01172c-0.55469,0 -1,0.44531 -1,1v2c0,0.55078 0.44531,1 1,1c0.55469,0 1,-0.44922 1,-1v-2c0,-0.55469 -0.44531,-1 -1,-1zM32,50.01172c-0.55469,0 -1,0.44531 -1,1v2c0,0.55078 0.44531,1 1,1c0.55469,0 1,-0.44922 1,-1v-2c0,-0.55469 -0.44531,-1 -1,-1zM37,50.01172c-0.55469,0 -1,0.44531 -1,1v2c0,0.55078 0.44531,1 1,1c0.55469,0 1,-0.44922 1,-1v-2c0,-0.55469 -0.44531,-1 -1,-1z"></path></g></g></g>
</svg>