<svg xmlns="http://www.w3.org/2000/svg" xmlns:xlink="http://www.w3.org/1999/xlink" viewBox="0,0,256,256" width="256px" height="256px" fill-rule="nonzero"><g transform="translate(-44.8,-44.8) scale(1.35,1.35)"><g fill="none" fill-rule="nonzero" stroke="none" stroke-width="none" stroke-linecap="none" stroke-linejoin="none" stroke-miterlimit="10" stroke-dasharray="" stroke-dashoffset="0" font-family="none" font-weight="none" font-size="none" text-anchor="none" style="mix-blend-mode: normal"><g transform="translate(0,-2) scale(4,4)"><path d="M55,25c0,-11.046 -10.297,-20 -23,-20c-12.703,0 -23,8.954 -23,20c0,2.906 0.718,5.664 2,8.155v6.036c0,4.865 3.944,8.809 8.809,8.809h0.191v4c0,2.209 1.791,4 4,4c2.209,0 4,-1.791 4,-4c0,2.209 1.791,4 4,4c2.209,0 4,-1.791 4,-4c0,2.209 1.791,4 4,4c2.209,0 4,-1.791 4,-4v-4h0.191c4.865,0 8.809,-3.944 8.809,-8.809v-6.036c1.282,-2.491 2,-5.249 2,-8.155z" fill="#ffa500" stroke="none" stroke-width="1" stroke-linecap="butt" stroke-linejoin="miter"></path><path d="M14.738,18.317c1.936,-3.533 5.358,-6.374 9.586,-7.953" fill="none" stroke="#ffffff" stroke-width="3" stroke-linecap="round" stroke-linejoin="round"></path><ellipse cx="32" cy="61" rx="13" ry="3" fill="#000000" stroke="none" stroke-width="1" stroke-linecap="butt" stroke-linejoin="miter" opacity="0.3"></ellipse><circle cx="22.5" cy="36.5" r="6.5" fill="#9c34c2" stroke="none" stroke-width="1" stroke-linecap="butt" stroke-linejoin="miter"></circle><path d="M33,47c-0.355,0 -0.699,-0.095 -1,-0.269c-0.479,0.275 -1.066,0.354 -1.633,0.166c-1.048,-0.35 -1.614,-1.482 -1.265,-2.53l1,-3c0.273,-0.816 1.037,-1.367 1.898,-1.367c0.861,0 1.625,0.551 1.897,1.368l1,3c0.35,1.048 -0.217,2.18 -1.265,2.53c-0.209,0.069 -0.423,0.102 -0.632,0.102z" fill="#9c34c2" stroke="none" stroke-width="1" stroke-linecap="butt" stroke-linejoin="miter"></path><path d="M54.294,20.071c-2.424,0.346 -4.294,2.409 -4.294,4.929c0,2.028 -0.486,4.002 -1.446,5.869c-0.365,0.707 -0.554,1.491 -0.554,2.286v3.845c0,2.1 -9,5 -9,11v4c0,1.582 0.749,2.975 1.895,3.891c1.777,-0.408 3.105,-1.991 3.105,-3.891v-4h0.191c4.865,0 8.809,-3.944 8.809,-8.809v-6.036c1.282,-2.491 2,-5.25 2,-8.155c0,-1.701 -0.246,-3.352 -0.706,-4.929z" fill="#000000" stroke="none" stroke-width="1" stroke-linecap="butt" stroke-linejoin="miter" opacity="0.15"></path><path d="M32,10c2.601,0 4.712,-1.993 4.953,-4.53c-1.596,-0.305 -3.252,-0.47 -4.953,-0.47c-12.703,0 -23,8.954 -23,20c0,2.906 0.718,5.664 2,8.155v5.001c0.001,0 0.003,0 0.004,0c0.77,0 1.552,-0.178 2.283,-0.555c2.455,-1.263 3.422,-4.277 2.159,-6.733c-0.96,-1.866 -1.446,-3.84 -1.446,-5.868c0,-8.271 8.075,-15 18,-15z" fill="#ffffff" stroke="none" stroke-width="1" stroke-linecap="butt" stroke-linejoin="miter" opacity="0.3"></path><circle cx="41.5" cy="36.5" r="6.5" fill="#9c34c2" stroke="none" stroke-width="1" stroke-linecap="butt" stroke-linejoin="miter"></circle></g></g></g></svg>